<?xml version="1.0" encoding="UTF-8"?>
<svg width="25px" height="20px" viewBox="0 0 25 20" version="1.1" xmlns="http://www.w3.org/2000/svg" xmlns:xlink="http://www.w3.org/1999/xlink">
    <title>icon-cart</title>
    <g id="Page-1" stroke="none" stroke-width="1" fill="none" fill-rule="evenodd">
        <g id="icon-cart" fill="#1C99AA" fill-rule="nonzero">
            <path d="M1,0 C0.449219,0 0,0.449219 0,1 C0,1.550781 0.449219,2 1,2 L3.21875,2 L5.84375,12.5 C6.066406,13.390625 6.863281,14 7.78125,14 L20.25,14 C21.152344,14 21.917969,13.402344 22.15625,12.53125 L24.4064121,4.26258198 C24.5514321,3.72967708 24.2369893,3.18011034 23.7040844,3.03509031 C23.6185006,3.01180029 23.5301986,3 23.4415024,3 L5.15625,3 L5.15625,3 L5.84375,4.69042169 L20.8620162,4.69042169 C21.4143009,4.69042169 21.8620162,5.13813694 21.8620162,5.69042169 C21.8620162,5.7755725 21.8511404,5.86037462 21.8296527,5.94276965 L20.25,12 L20.25,12 L7.78125,12 L5.15625,1.5 C4.933594,0.609375 4.136719,0 3.21875,0 L1,0 Z M19,14 C17.355469,14 16,15.355469 16,17 C16,18.644531 17.355469,20 19,20 C20.644531,20 22,18.644531 22,17 C22,15.355469 20.644531,14 19,14 Z M10,14 C8.355469,14 7,15.355469 7,17 C7,18.644531 8.355469,20 10,20 C11.644531,20 13,18.644531 13,17 C13,15.355469 11.644531,14 10,14 Z M10,16 C10.5625,16 11,16.4375 11,17 C11,17.5625 10.5625,18 10,18 C9.4375,18 9,17.5625 9,17 C9,16.4375 9.4375,16 10,16 Z M19,16 C19.5625,16 20,16.4375 20,17 C20,17.5625 19.5625,18 19,18 C18.4375,18 18,17.5625 18,17 C18,16.4375 18.4375,16 19,16 Z" id="Shape"></path>
        </g>
    </g>
</svg>