<?xml version="1.0" encoding="utf-8"?>
<svg xmlns="http://www.w3.org/2000/svg" viewBox="0 0 50 50" fill="#c2c2c2"><path d="M 24.984375 2.9863281 A 1.0001 1.0001 0 0 0 24 4 L 24 11 A 1.0001 1.0001 0 1 0 26 11 L 26 4 A 1.0001 1.0001 0 0 0 24.984375 2.9863281 z M 14.455078 5.8007812 A 1.0001 1.0001 0 0 0 13.634766 7.3125 L 17.134766 13.375 A 1.0001 1.0001 0 1 0 18.865234 12.376953 L 15.365234 6.3125 A 1.0001 1.0001 0 0 0 14.455078 5.8007812 z M 35.515625 5.8007812 A 1.0001 1.0001 0 0 0 34.634766 6.3125 L 31.134766 12.376953 A 1.0001 1.0001 0 1 0 32.865234 13.375 L 36.365234 7.3125 A 1.0001 1.0001 0 0 0 35.515625 5.8007812 z M 6.8378906 13.492188 A 1.0001 1.0001 0 0 0 6.7382812 13.494141 A 1.0001 1.0001 0 0 0 6.3125 15.365234 L 12.376953 18.865234 A 1.0001 1.0001 0 1 0 13.375 17.134766 L 7.3125 13.634766 A 1.0001 1.0001 0 0 0 6.8378906 13.492188 z M 43.230469 13.494141 A 1.0001 1.0001 0 0 0 42.6875 13.634766 L 36.625 17.134766 A 1.0001 1.0001 0 1 0 37.623047 18.865234 L 43.6875 15.365234 A 1.0001 1.0001 0 0 0 43.230469 13.494141 z M 4 24 A 1.0001 1.0001 0 1 0 4 26 L 11 26 A 1.0001 1.0001 0 1 0 11 24 L 4 24 z M 39 24 A 1.0001 1.0001 0 1 0 39 26 L 46 26 A 1.0001 1.0001 0 1 0 46 24 L 39 24 z M 37.148438 30.992188 A 1.0001 1.0001 0 0 0 37.048828 30.994141 A 1.0001 1.0001 0 0 0 36.625 32.865234 L 42.6875 36.365234 A 1.0001 1.0001 0 1 0 43.6875 34.634766 L 37.623047 31.134766 A 1.0001 1.0001 0 0 0 37.148438 30.992188 z M 12.919922 30.994141 A 1.0001 1.0001 0 0 0 12.376953 31.134766 L 6.3125 34.634766 A 1.0001 1.0001 0 1 0 7.3125 36.365234 L 13.375 32.865234 A 1.0001 1.0001 0 0 0 12.919922 30.994141 z M 18.015625 36.111328 A 1.0001 1.0001 0 0 0 17.134766 36.625 L 13.634766 42.6875 A 1.0001 1.0001 0 1 0 15.365234 43.6875 L 18.865234 37.623047 A 1.0001 1.0001 0 0 0 18.015625 36.111328 z M 31.955078 36.113281 A 1.0001 1.0001 0 0 0 31.134766 37.623047 L 34.634766 43.6875 A 1.0001 1.0001 0 1 0 36.365234 42.6875 L 32.865234 36.625 A 1.0001 1.0001 0 0 0 31.955078 36.113281 z M 24.984375 37.986328 A 1.0001 1.0001 0 0 0 24 39 L 24 46 A 1.0001 1.0001 0 1 0 26 46 L 26 39 A 1.0001 1.0001 0 0 0 24.984375 37.986328 z" fill="#c2c2c2"/></svg>
