<?xml version="1.0" encoding="UTF-8"?>
<svg width="243px" height="123px" viewBox="0 0 243 123" version="1.1" xmlns="http://www.w3.org/2000/svg" xmlns:xlink="http://www.w3.org/1999/xlink">
    <title>Group 16</title>
    <defs>
        <polygon id="path-1" points="0 0 242.815 0 242.815 122.179 0 122.179"></polygon>
    </defs>
    <g id="Page-1" stroke="none" stroke-width="1" fill="none" fill-rule="evenodd">
        <g id="Group-16">
            <g id="Group-3">
                <mask id="mask-2" fill="white">
                    <use xlink:href="#path-1"></use>
                </mask>
                <g id="Clip-2"></g>
                <path d="M201.9882,17.2424 L201.9932,17.2404 L201.9992,17.2374 L202.1612,17.1734 C203.4752,16.6734 204.7962,16.3824 206.2152,16.4024 C208.1422,16.4364 210.0062,16.9224 211.7812,17.6464 C213.1112,18.1864 214.3722,18.8854 215.5462,19.7124 C217.8002,17.8744 220.4002,16.6704 223.3492,16.7164 C223.4662,16.7184 223.5802,16.7214 223.7012,16.7224 C225.0212,16.7494 226.0602,16.9204 227.2962,17.4074 L227.2992,17.4074 C228.7432,17.8864 230.0922,18.6094 231.3422,19.4734 C232.5572,20.3134 233.6822,21.2794 234.7052,22.3424 C235.7822,23.4574 236.7392,24.6854 237.5542,26.0074 C238.7242,27.9124 239.4962,30.0254 239.7242,32.2544 C239.9872,34.8274 239.3172,37.3314 238.4272,39.7234 C236.0462,46.1144 233.4322,52.4564 231.6332,59.0444 C236.6222,60.5764 240.9962,63.3114 242.2702,68.7154 C242.7272,70.6584 242.8632,72.6644 242.8012,74.6534 C242.7432,76.5854 242.5022,78.5104 242.0802,80.3984 C241.5522,82.7424 240.6352,84.9804 239.3542,87.0144 C237.3232,90.2314 234.2262,92.4334 230.5672,93.3904 L230.2552,93.4744 L229.8922,93.5464 C227.5922,93.9824 225.1082,93.5734 222.8022,93.3414 C219.9122,93.0554 217.0282,92.7104 214.1482,92.3224 C211.4532,91.9584 208.7562,91.5994 206.0562,91.2554 C205.0492,91.1244 204.0392,91.0394 203.0362,90.8674 C199.7502,90.3054 196.6712,88.8394 194.9662,85.8404 C179.4672,85.5874 163.8722,86.0354 148.3202,87.1354 C153.0162,87.6104 157.6172,89.3774 160.8552,92.8534 C161.5272,91.7774 162.3922,90.8074 163.4312,89.9644 C166.4392,87.5184 169.5102,86.9294 173.2962,86.9184 C178.4842,86.9034 183.5742,88.4714 187.9132,91.2034 L190.5192,92.8454 L187.1312,101.1924 C188.8982,103.3374 189.7522,105.9744 189.7522,108.7734 C189.7522,112.7534 188.0002,116.2244 184.9182,118.7154 C181.8412,121.2014 177.9912,122.0864 174.1022,122.0974 C171.8472,122.1044 169.6002,121.8014 167.4302,121.1794 C165.3002,120.5664 163.2462,119.6674 161.4752,118.3164 L159.9742,117.1724 C159.9492,117.1964 159.9242,117.2204 159.8972,117.2444 C156.3582,120.5834 151.9212,122.1644 147.0862,122.179454 C145.0842,122.1844 143.1212,121.8444 141.1842,121.3484 L141.5282,121.8394 L103.1432,121.9554 L103.1432,119.0154 C100.2072,120.8914 97.4372,121.9724 92.8432,121.9864 L75.2372,122.0394 L75.2372,97.1364 C68.3112,98.5744 61.4152,100.1504 54.5522,101.8634 C48.3342,103.4174 42.1282,105.0554 36.0512,107.1054 C32.5782,108.2754 29.0762,109.4824 25.8022,111.1464 C23.8982,112.1144 22.0022,113.1024 20.1442,114.1604 C18.0062,115.7124 15.3952,116.2724 12.7962,115.8504 C7.7942,115.0344 4.6822,110.9604 4.3902,106.0324 C4.2102,103.1744 5.1182,100.5134 6.5312,98.0644 C4.4402,96.3874 2.7842,94.2804 1.6312,91.8624 C-0.5428,87.3164 -0.3568,82.3284 1.0932,77.5934 L1.1182,77.5134 C2.4182,73.4024 4.5552,69.6434 7.2262,66.2834 L7.2352,66.2704 C7.8822,65.3964 8.5962,64.5764 9.3322,63.7704 L9.5322,63.5364 L9.6792,63.4044 C10.4982,62.5554 11.3382,61.7274 12.2032,60.9384 C12.7562,60.4304 13.3242,59.9444 13.9152,59.4794 C12.3092,57.0024 11.3452,54.1854 10.9012,51.2824 L10.8772,51.1324 L10.8702,51.0744 C10.0982,45.2494 11.5512,39.4114 14.1312,34.1984 C19.3522,23.6264 29.3212,14.0994 39.3582,8.0614 C45.0012,4.6814 51.1432,2.2504 57.5882,0.8964 C62.4422,-0.1026 67.5222,-0.3896 72.3892,0.6704 C77.1072,1.6844 81.5932,4.0424 84.2912,8.1634 C85.4732,8.3374 86.6382,8.6304 87.7772,9.0104 C88.3852,9.2154 88.9882,9.4464 89.5772,9.7034 C90.9742,10.3104 92.3072,11.0564 93.5542,11.9384 C96.7002,14.1664 98.8662,17.3904 99.2632,21.2754 C99.3312,21.9334 99.3552,22.5944 99.3462,23.2534 C99.6502,22.8144 99.9732,22.3884 100.3182,21.9784 C102.4682,19.4254 105.3842,17.7354 108.7322,17.3914 C110.0042,17.2634 111.2822,17.2694 112.5572,17.3494 C114.1112,17.4484 115.6522,17.7114 117.1492,18.1464 C119.0842,18.7114 120.8972,19.6144 122.4832,20.8564 C124.6762,22.5724 126.1892,24.9074 126.8582,27.5564 C126.8972,27.5474 126.9362,27.5374 126.9762,27.5284 C128.0112,26.2994 129.1582,25.1654 130.4032,24.1444 C131.8232,22.9844 133.3642,21.9774 135.0032,21.1554 C137.0192,20.1424 139.1942,19.5014 141.4412,19.2704 C143.8112,19.0294 146.2162,19.0614 148.5472,19.6114 C151.0212,20.1984 153.3192,21.3014 155.2462,22.9754 C155.8142,23.4714 156.3392,24.0044 156.8202,24.5714 C157.0092,24.5164 157.1992,24.4674 157.3932,24.4224 C158.4292,23.1914 159.5772,22.0554 160.8262,21.0334 C162.2452,19.8774 163.7842,18.8684 165.4222,18.0464 C167.4402,17.0364 169.6102,16.3944 171.8562,16.1644 C174.2282,15.9214 176.6332,15.9524 178.9622,16.5054 C180.5372,16.8784 182.0392,17.4574 183.4192,18.2614 C184.9232,17.5144 186.6062,17.0994 188.3422,17.0544 C190.8512,16.9864 193.3282,17.5954 195.6192,18.5964 C196.4682,18.9704 197.2882,19.3984 198.0762,19.8784 C199.3502,18.7774 200.6512,17.9414 201.9952,17.3744 L201.9882,17.2424 Z M140.2572,87.7634 C135.7292,88.1494 131.2082,88.5904 126.6962,89.0834 C128.7542,89.9764 130.6052,91.2994 132.0652,93.1994 C132.0932,93.2354 132.1212,93.2724 132.1492,93.3094 C132.6322,92.6944 133.1632,92.1114 133.7402,91.5614 C135.6572,89.7364 137.8592,88.4874 140.2572,87.7634 L140.2572,87.7634 Z" id="Fill-1" fill="#0A0A0D" mask="url(#mask-2)"></path>
            </g>
            <path d="M104.4579,65.0071 C103.8669,65.9231 103.2539,66.8261 102.6189,67.7131 C102.5639,67.7881 102.5109,67.8641 102.4559,67.9391 C103.5189,67.7571 104.5809,67.5781 105.6449,67.4041 C105.4699,67.1351 105.3089,66.8571 105.1549,66.5721 C104.8839,66.0631 104.6519,65.5421 104.4579,65.0071 M106.2839,57.5091 C105.8149,58.3631 105.3419,59.2171 104.8619,60.0631 C103.6229,62.2491 102.2829,64.3811 100.8189,66.4251 C99.6059,68.1171 98.2609,69.7511 96.7509,71.1931 C101.1989,70.3781 105.6589,69.6231 110.1239,68.9281 C109.8869,68.7611 109.6529,68.5821 109.4289,68.3941 C108.4729,67.5921 107.6959,66.6321 107.1069,65.5311 C106.5249,64.4391 106.1569,63.2671 106.0319,62.0341 C105.8809,60.5481 106.0269,58.9881 106.2839,57.5091 M86.1449,73.2481 C85.5849,72.9371 85.0509,72.5541 84.5449,72.1021 C82.4799,70.2461 81.5509,67.6721 81.2739,64.9681 C81.1669,63.9221 81.1869,62.8481 81.3029,61.7681 C79.6789,64.8881 78.3529,68.1371 77.5409,71.6881 C77.4099,72.2631 77.1239,73.5231 77.1839,74.1081 C77.2239,74.4941 77.2009,74.8541 77.1279,75.1851 C80.1249,74.5121 83.1319,73.8661 86.1449,73.2481 M70.3489,76.7561 C70.2759,76.7281 70.2039,76.6961 70.1309,76.6681 C68.8619,76.1391 67.6899,75.4201 66.6259,74.5461 C66.3389,74.3091 66.0669,74.0571 65.8169,73.7851 C64.3519,75.6471 62.6489,77.4581 60.8189,79.1441 C63.9829,78.3171 67.1599,77.5211 70.3489,76.7561 M122.7819,67.1121 C123.7339,66.9861 124.6869,66.8651 125.6409,66.7451 C125.3349,66.5291 125.0369,66.2991 124.7499,66.0531 C124.5369,65.8721 124.3299,65.6841 124.1289,65.4891 C123.7019,66.0471 123.2539,66.5931 122.7819,67.1121 M142.6089,64.8911 C147.1479,64.4701 151.7169,64.1061 156.3049,63.8081 C155.9119,63.5451 155.5319,63.2571 155.1679,62.9461 C153.7699,61.7601 152.6799,60.2841 151.8389,58.6621 C151.5799,58.1631 151.3529,57.6461 151.1569,57.1201 C150.0819,57.7311 148.9469,58.2191 147.7619,58.5831 C146.3429,60.9171 144.6379,63.0571 142.6089,64.8911 M171.4489,63.0781 C174.9699,62.9691 178.4939,62.9051 182.0189,62.8881 C181.3099,62.4611 180.6369,61.9731 180.0049,61.4341 C178.8209,60.4231 177.8929,59.1321 177.7289,57.5451 C177.6889,57.1431 177.6619,56.7361 177.6449,56.3231 C176.2389,58.4821 174.5709,60.4531 172.6149,62.1491 C172.2349,62.4781 171.8479,62.7871 171.4489,63.0781 M190.3649,62.9391 C193.2249,62.9861 196.0789,63.0671 198.9299,63.1841 C198.3099,62.7951 197.7229,62.3601 197.1629,61.8821 C195.9789,60.8701 195.0509,59.5811 194.8889,57.9941 C194.6539,55.7171 194.6379,52.6501 195.0069,50.4011 C195.0349,50.2291 195.0629,50.0581 195.0949,49.8871 C193.1479,52.7861 191.8439,55.1751 190.9789,58.8971 C190.8479,59.4621 190.5609,60.7041 190.6199,61.2801 C190.6859,61.9111 190.5859,62.4691 190.3649,62.9391 M207.3869,63.6371 C209.8569,63.8011 212.3229,63.9941 214.7809,64.2151 C213.9979,63.7601 213.2589,63.2351 212.5659,62.6421 C211.3829,61.6311 210.4519,60.3411 210.2909,58.7531 C210.1499,57.3761 210.3949,55.8431 210.6899,54.4971 C210.9389,53.3581 211.2229,52.2241 211.5349,51.1031 C209.8459,53.7451 208.9889,55.6721 208.1369,59.3441 C208.0049,59.9101 207.7199,61.1511 207.7789,61.7301 C207.8529,62.4781 207.7019,63.1201 207.3869,63.6371 M222.2949,64.9891 C223.3799,65.1161 224.4629,65.2481 225.5439,65.3861 L225.6069,65.3931 L225.6679,65.4041 C228.5459,65.9431 234.0799,67.0361 234.8859,70.4481 C235.1879,71.7411 235.2579,73.1071 235.2179,74.4271 C235.1739,75.8761 234.9939,77.3181 234.6779,78.7351 C234.3399,80.2361 233.7629,81.6581 232.9399,82.9631 C231.9339,84.5591 230.4369,85.5871 228.6169,86.0591 L228.5469,86.0781 L228.4759,86.0911 C227.4779,86.2821 224.5999,85.8941 223.5509,85.7911 C220.7509,85.5151 217.9549,85.1801 215.1669,84.8031 C212.4549,84.4371 209.7379,84.0761 207.0249,83.7281 C206.0479,83.6031 205.0649,83.4751 204.0929,83.3191 C202.9049,83.1261 201.6599,82.9041 201.3159,81.4091 L200.8029,79.1641 L203.3939,78.6771 C203.7249,78.6141 204.0619,78.5611 204.4039,78.5121 C202.5279,78.4261 200.6499,78.3681 198.7789,78.3261 C149.7859,77.1991 100.2629,82.6311 52.7169,94.5021 C46.3289,96.0971 39.8689,97.8101 33.6299,99.9141 C29.8879,101.1751 25.8899,102.5921 22.3669,104.3831 C20.1479,105.5091 17.9319,106.6711 15.7799,107.9191 C15.2789,108.2891 14.6479,108.4641 14.0199,108.3611 C12.5369,108.1191 12.0419,106.8351 11.9669,105.5561 C11.8739,104.1001 12.6289,102.6041 13.3759,101.4021 C14.4719,99.6331 16.1269,97.9811 17.6629,96.5881 C18.2659,96.0411 18.9159,95.5191 19.5979,95.0201 C17.7019,94.8641 15.8219,94.4831 14.0519,93.7681 C11.5619,92.7421 9.6399,91.0261 8.4779,88.5911 C7.1529,85.8201 7.4749,82.6701 8.3509,79.8121 C9.3869,76.5351 11.1229,73.5561 13.2649,70.8811 C13.7849,70.1621 14.3889,69.4851 14.9889,68.8311 L15.0199,68.7961 C15.7739,68.0121 16.5439,67.2481 17.3409,66.5221 C18.2269,65.7061 19.1769,64.9681 20.1839,64.3111 C21.1649,63.6641 22.2459,63.1081 23.3849,62.8231 C24.6609,62.4921 25.9899,62.4171 27.3029,62.5471 C28.5619,62.6731 29.7909,62.9641 30.9839,63.4101 C32.0799,63.8311 33.1219,64.3981 34.0459,65.1111 C34.9419,65.7981 35.7139,66.6401 36.1799,67.6781 L36.2579,67.8511 L36.3049,68.0331 C36.4529,68.6131 36.5179,69.1941 36.4789,69.7921 C36.3849,71.2631 35.3029,72.2181 33.9289,72.5891 C32.5099,72.9521 31.1349,73.6041 29.8849,74.3581 C28.4529,75.2251 27.1049,76.2181 25.8839,77.3611 C24.7709,78.4111 23.7639,79.5671 22.9349,80.8331 C22.4449,81.6041 21.9279,82.6011 21.8939,83.5251 C21.8899,83.6141 21.8929,83.8261 21.9239,83.9351 C22.3039,84.2041 22.8549,84.3061 23.3129,84.3391 C24.2929,84.4181 25.2889,84.3811 26.2609,84.2781 C27.3259,84.1581 28.3839,83.9801 29.4159,83.7171 C31.8559,83.0721 34.2699,82.1361 36.5759,81.1131 L36.6169,81.0961 C39.3179,79.9601 41.9149,78.6061 44.3889,77.0251 C46.5989,75.6351 48.6859,73.9971 50.4609,72.0821 L50.4909,72.0521 C51.6789,70.8191 52.6129,69.3351 52.6829,67.5771 C52.7729,65.5301 50.4629,64.6711 48.8289,64.2101 C45.9299,63.4981 42.9689,63.0351 40.0019,62.7441 C36.9249,62.4521 33.8409,62.0511 30.8049,61.4331 C27.9789,60.8411 25.2469,59.8071 22.9159,58.1021 C20.2359,56.1901 18.8909,53.3261 18.4009,50.1281 L18.3949,50.0881 C17.8149,45.7621 19.0249,41.4151 20.9359,37.5591 C25.4839,28.3471 34.5069,19.8361 43.2589,14.5711 C48.1899,11.6141 53.4869,9.5111 59.1199,8.3261 C62.9169,7.5471 66.9819,7.2571 70.7929,8.0871 C75.8889,9.1841 78.9589,11.9471 79.1879,16.3281 C79.7869,15.8791 80.5659,15.6191 81.4189,15.5761 C82.7539,15.5081 84.0969,15.7791 85.3589,16.2051 C86.7219,16.6591 88.0009,17.3041 89.1719,18.1341 C90.5069,19.0781 91.5439,20.3691 91.7159,22.0451 C91.8799,23.6591 91.5769,25.4741 91.2189,27.0451 C90.7419,29.1581 90.1439,31.2511 89.4909,33.3161 C89.3459,33.7781 89.1979,34.2371 89.0499,34.6971 C89.7719,33.9111 90.6859,33.0441 91.7009,32.7111 L91.7999,32.6761 L91.9009,32.6531 C92.9719,32.4101 94.0749,32.6531 95.0679,33.0731 C96.0069,33.4721 96.8829,33.9991 97.6949,34.6131 C98.5879,35.2881 99.3669,36.0891 100.0289,36.9901 C100.7729,38.0041 101.2629,39.1521 101.3909,40.4081 C101.5219,41.6991 100.9899,43.4031 100.5769,44.6211 C99.9479,46.4691 99.3139,48.3241 98.6759,50.1871 C98.2739,51.3131 97.0229,54.9191 96.2269,57.9321 C96.2809,57.8541 96.3289,57.7821 96.3689,57.7251 C98.1089,55.1071 99.6459,52.2471 101.0399,49.4271 C101.1039,49.1731 101.2039,48.9261 101.3369,48.6951 L101.4339,48.5281 C102.2699,46.6191 103.0059,44.6711 103.7419,42.7271 C103.7969,42.5771 103.8519,42.4321 103.9059,42.2821 C103.7559,41.9021 103.6289,41.5121 103.5229,41.1181 C103.3229,40.3611 103.1849,39.5891 103.1069,38.8111 C102.9519,37.2971 102.9829,35.7751 103.1999,34.2691 C103.4009,32.8691 103.7339,31.4821 104.2459,30.1611 C104.7039,28.9821 105.3089,27.8361 106.1249,26.8641 C106.9979,25.8241 108.1289,25.0811 109.5029,24.9411 C110.3529,24.8551 111.2279,24.8671 112.0769,24.9221 C113.0749,24.9861 114.0639,25.1511 115.0259,25.4301 C116.0349,25.7241 116.9789,26.1831 117.8089,26.8311 C118.8599,27.6541 119.4889,28.7931 119.6239,30.1211 C119.7329,31.1901 119.5339,32.2511 119.1449,33.2461 C118.8199,34.0731 118.4929,34.9011 118.1629,35.7241 L118.1359,35.7911 L118.1049,35.8541 C117.6659,36.7801 117.2829,37.7361 116.9589,38.7081 C116.7369,39.3721 116.5919,40.1021 116.6639,40.8041 C116.6989,41.1411 116.7669,41.5291 116.9139,41.8371 C117.0039,42.0271 117.1239,42.2261 117.2809,42.3711 C117.4689,42.5451 117.6769,42.6981 117.9059,42.8201 C118.2299,42.9891 118.5549,43.1571 118.8829,43.3201 C119.6399,43.6311 120.3869,44.0061 121.0589,44.4751 C121.2209,44.5891 121.3699,44.7121 121.5109,44.8441 C121.7989,44.0621 122.1159,43.2891 122.4599,42.5301 C123.2429,40.8071 124.1729,39.0981 125.3309,37.5931 C126.2479,36.3981 127.4989,35.0181 129.0929,34.8541 C129.6619,34.7951 130.2359,34.7951 130.8069,34.8321 C130.8629,34.8351 130.9169,34.8391 130.9729,34.8451 C131.4309,34.1581 131.9119,33.4941 132.4259,32.8511 C133.2499,31.8111 134.1779,30.8611 135.2059,30.0201 C136.1949,29.2121 137.2629,28.5091 138.4049,27.9361 C139.6039,27.3351 140.8819,26.9551 142.2139,26.8191 C143.7169,26.6651 145.3219,26.6471 146.7989,26.9951 C148.0729,27.2961 149.2699,27.8311 150.2639,28.6971 C151.2079,29.5201 151.8979,30.5501 152.3319,31.7261 C152.7259,32.7981 152.9619,33.9221 153.0779,35.0571 C153.1979,36.2391 153.2619,37.4191 153.2689,38.5931 C153.9759,37.1551 154.7699,35.7571 155.7479,34.4861 C156.6659,33.2901 157.9159,31.9091 159.5089,31.7461 C160.0799,31.6891 160.6539,31.6881 161.2239,31.7251 C161.2779,31.7281 161.3339,31.7321 161.3899,31.7371 C161.8459,31.0531 162.3309,30.3861 162.8429,29.7421 C163.6679,28.7041 164.5959,27.7521 165.6229,26.9141 C166.6119,26.1061 167.6839,25.4011 168.8219,24.8301 C170.0209,24.2281 171.2989,23.8471 172.6309,23.7121 C174.1329,23.5581 175.7379,23.5371 177.2169,23.8891 C178.4889,24.1891 179.6879,24.7251 180.6799,25.5901 C181.6259,26.4151 182.3149,27.4421 182.7469,28.6181 C183.1419,29.6921 183.3789,30.8151 183.4949,31.9491 C183.5659,32.6411 183.6159,33.3271 183.6479,34.0181 C183.9349,33.1391 184.1909,32.3681 184.4089,31.7761 C184.7919,30.7381 185.2709,29.2051 185.1539,28.0811 C184.9379,25.9611 186.5499,24.6931 188.5459,24.6391 C189.9339,24.6021 191.3119,24.9941 192.5749,25.5471 C194.0039,26.1721 195.2879,27.0461 196.4259,28.1071 C197.2479,28.8761 197.8899,29.7601 198.3029,30.7531 C198.8489,30.0931 199.4019,29.4401 199.9639,28.7921 C200.8219,27.8061 201.7189,26.8341 202.6789,25.9411 C203.4019,25.2681 204.2789,24.5291 205.2029,24.1531 L205.6249,23.9801 L206.0829,23.9871 C207.0489,24.0061 208.0369,24.3141 208.9249,24.6721 C209.9969,25.1101 210.9839,25.7171 211.8799,26.4481 C212.8209,27.2191 213.6379,28.1201 214.3329,29.1181 C214.7389,29.7001 215.0619,30.3191 215.3039,30.9661 C215.9579,30.1681 216.6269,29.3811 217.3139,28.6081 C218.1779,27.6341 219.0939,26.6691 220.0759,25.8151 C220.9559,25.0501 222.0289,24.2801 223.2449,24.3051 C223.3489,24.3041 223.4519,24.3071 223.5579,24.3091 C223.9549,24.3171 224.3399,24.4101 224.7109,24.5481 C225.5419,24.7851 226.3219,25.2261 227.0269,25.7151 C227.8309,26.2691 228.5699,26.9051 229.2459,27.6101 C229.9449,28.3321 230.5639,29.1271 231.0939,29.9841 C231.6639,30.9141 232.0649,31.9351 232.1779,33.0271 C232.3079,34.2881 231.7539,35.9031 231.3169,37.0751 C228.4979,44.6461 225.3729,52.2181 223.5389,60.1061 C223.4079,60.6701 223.1219,61.9131 223.1799,62.4891 C223.2889,63.5601 222.9339,64.4131 222.2949,64.9891 M77.0129,24.8381 C75.3519,28.3681 73.0469,31.9021 71.1979,34.8661 C70.2349,36.4111 69.7509,38.5201 69.3219,40.2781 C68.2979,44.4961 67.2039,48.7471 62.9089,50.7591 C62.5179,50.9481 62.1099,51.1111 61.6909,51.2431 C63.6939,51.9591 65.5779,52.9151 67.1149,54.1981 C68.4379,50.0341 69.9219,45.9191 71.3839,41.7991 C72.2619,39.3221 73.1329,36.8411 73.9929,34.3571 C74.7719,32.1081 75.5199,29.8511 76.2169,27.5781 C76.4939,26.6691 76.7639,25.7561 77.0129,24.8381 M52.5319,49.3191 C52.4469,49.2181 52.3629,49.1111 52.2829,49.0021 C51.4779,47.8871 51.0869,46.5571 50.9509,45.2021 C50.7759,43.4541 51.2119,41.5851 51.7609,39.9441 C52.2929,38.3011 53.8979,36.1741 54.9329,34.7781 C56.5739,32.5621 58.2909,30.3961 59.9529,28.1921 C61.5919,26.0191 63.2779,23.7411 64.6499,21.3881 C64.9909,20.8051 66.0559,18.8611 66.1739,17.9171 C65.6039,17.8441 64.5739,17.9931 64.1839,18.0651 C61.2759,18.6611 58.4369,20.0691 55.9299,21.6231 C52.8289,23.5371 49.9629,25.7961 47.3799,28.3651 C44.9079,30.8261 42.6649,33.5361 40.8259,36.5011 C39.5599,38.5441 38.3529,41.0741 38.2669,43.5351 C38.2079,44.7981 38.4289,45.9831 39.5529,46.7051 C41.0969,47.7111 42.9769,48.2731 44.7769,48.5811 C47.2469,49.0021 49.7459,49.2181 52.2479,49.2961 L52.3269,49.2981 L52.4089,49.3071 C52.4499,49.3121 52.4899,49.3161 52.5319,49.3191 M167.1359,55.2621 C166.0909,54.8801 165.0809,54.4051 164.1239,53.8461 C164.0669,54.4231 164.0599,54.9911 164.1179,55.5261 C164.1469,55.7821 164.3119,56.7121 164.5699,56.8661 C164.8409,56.9541 165.6099,56.5081 165.8139,56.3721 C166.2699,56.0701 166.7139,55.6871 167.1359,55.2621 M172.1319,47.0641 C172.4229,46.3181 172.6869,45.5621 172.9269,44.7981 C173.6349,42.5631 174.3269,40.0331 174.5199,37.6891 C174.5459,37.3791 174.5799,36.6861 174.5409,36.0871 C173.9109,36.8371 173.2939,38.0591 173.0739,38.5891 C172.0519,41.0501 171.7559,43.8731 172.0229,46.5111 C172.0439,46.6951 172.0759,46.8841 172.1319,47.0641 M136.7179,58.3691 C135.6749,57.9871 134.6639,57.5151 133.7069,56.9521 C133.6509,57.5311 133.6439,58.1011 133.7019,58.6341 C133.7309,58.8901 133.8959,59.8201 134.1539,59.9731 C134.4239,60.0611 135.1929,59.6131 135.3959,59.4811 C135.8529,59.1781 136.2989,58.7931 136.7179,58.3691 M141.7149,50.1711 C142.0049,49.4251 142.2699,48.6691 142.5119,47.9051 C143.2169,45.6701 143.9079,43.1401 144.1029,40.7951 C144.1299,40.4851 144.1639,39.7921 144.1249,39.1941 C143.4929,39.9441 142.8769,41.1661 142.6569,41.6951 C141.6349,44.1561 141.3379,46.9791 141.6059,49.6171 C141.6249,49.8021 141.6579,49.9901 141.7149,50.1711 M81.4709,71.9681 C81.0089,71.3251 80.6209,70.6421 80.2949,69.9271 C80.0729,70.6661 79.8729,71.4151 79.6979,72.1811 C79.6849,72.2361 79.6719,72.2961 79.6559,72.3601 C80.2619,72.2281 80.8659,72.0991 81.4709,71.9681 M147.9979,62.2001 C149.0859,62.1111 150.1729,62.0261 151.2629,61.9441 C150.8359,61.3531 150.4479,60.7361 150.0959,60.0941 C149.8059,60.2131 149.5129,60.3261 149.2159,60.4321 C148.8279,61.0331 148.4229,61.6231 147.9979,62.2001 M192.8589,60.7751 C193.0599,60.7791 193.2609,60.7851 193.4629,60.7891 C193.2989,60.4741 193.1579,60.1461 193.0399,59.8081 C192.9699,60.1141 192.8959,60.4671 192.8589,60.7751 M225.4069,63.1401 C225.5459,63.1571 225.6859,63.1751 225.8229,63.1911 L225.9499,63.2071 L226.0739,63.2331 C230.0469,63.9731 235.9519,65.3361 237.0389,69.9441 C237.3879,71.4271 237.4769,72.9781 237.4289,74.4941 C237.3819,76.0821 237.1849,77.6631 236.8369,79.2191 C236.4439,80.9671 235.7689,82.6251 234.8119,84.1451 C233.5039,86.2141 231.5389,87.5861 229.1729,88.1981 L229.0329,88.2361 L228.8909,88.2651 C227.5529,88.5191 224.7149,88.1311 223.3329,87.9911 C220.5069,87.7131 217.6859,87.3741 214.8689,86.9951 C212.1609,86.6291 209.4529,86.2701 206.7439,85.9231 C203.9639,85.5651 199.9939,85.5411 199.1599,81.9021 L198.8479,80.5401 C198.8069,80.5401 198.7689,80.5391 198.7289,80.5371 C149.9349,79.4141 100.6069,84.8251 53.2509,96.6491 C46.9239,98.2291 40.5189,99.9251 34.3379,102.0111 C30.6989,103.2361 26.7929,104.6141 23.3689,106.3551 C21.2849,107.4131 19.2019,108.5031 17.1759,109.6671 C16.4959,110.2171 15.3439,110.8181 13.6629,110.5451 C11.0909,110.1251 9.8949,108.0141 9.7569,105.6921 C9.6319,103.7241 10.4829,101.8681 11.4949,100.2371 C12.3579,98.8461 13.5039,97.5371 14.7039,96.3431 C14.1999,96.1891 13.7039,96.0121 13.2129,95.8151 C10.2149,94.5801 7.8809,92.4751 6.4809,89.5441 C4.9049,86.2471 5.1879,82.5811 6.2309,79.1761 L6.2429,79.1411 C7.3559,75.6181 9.2059,72.4171 11.5059,69.5391 C12.0699,68.7661 12.7129,68.0391 13.3569,67.3361 L13.3889,67.2991 L13.4249,67.2671 C14.2099,66.4461 15.0129,65.6521 15.8509,64.8891 C16.8209,63.9921 17.8689,63.1831 18.9669,62.4611 C20.1449,61.6851 21.4309,61.0401 22.8029,60.6891 C22.3959,60.4391 22.0009,60.1721 21.6139,59.8901 C18.4549,57.6271 16.7949,54.2511 16.2149,50.4651 L16.2089,50.4241 L16.2019,50.3801 C15.5639,45.6081 16.8449,40.8371 18.9509,36.5781 C23.6919,26.9801 32.9969,18.1631 42.1219,12.6731 C47.2629,9.5931 52.7949,7.3961 58.6729,6.1611 C62.7799,5.3161 67.1409,5.0281 71.2599,5.9251 C76.2279,6.9931 79.6419,9.5811 80.8909,13.4011 C81.0259,13.3861 81.1659,13.3741 81.3059,13.3681 C82.9229,13.2831 84.5329,13.5931 86.0619,14.1031 C87.6279,14.6311 89.1029,15.3731 90.4499,16.3261 C92.3169,17.6491 93.6789,19.4951 93.9159,21.8201 C94.1069,23.6911 93.7909,25.7111 93.3769,27.5361 C93.1639,28.4781 92.9259,29.4141 92.6729,30.3471 C93.7899,30.3281 94.8949,30.5991 95.9319,31.0351 C97.0369,31.5051 98.0719,32.1241 99.0279,32.8491 C99.7179,33.3691 100.3529,33.9551 100.9289,34.5951 C100.9539,34.3821 100.9789,34.1671 101.0099,33.9551 C101.2379,32.3871 101.6099,30.8391 102.1849,29.3611 C102.7299,27.9511 103.4539,26.6001 104.4329,25.4411 C105.6799,23.9571 107.3259,22.9401 109.2759,22.7391 C110.2509,22.6411 111.2429,22.6531 112.2179,22.7141 C113.3779,22.7881 114.5249,22.9821 115.6459,23.3071 C116.9219,23.6801 118.1199,24.2671 119.1719,25.0901 C120.6969,26.2831 121.6279,27.9691 121.8269,29.8971 C121.9719,31.3151 121.7229,32.7301 121.2049,34.0531 C120.8799,34.8851 120.5489,35.7171 120.2179,36.5481 L120.1639,36.6801 L120.1029,36.8081 C119.6999,37.6521 119.3539,38.5231 119.0569,39.4091 C118.9419,39.7541 118.8249,40.2101 118.8629,40.5781 C118.8709,40.6521 118.8839,40.7561 118.9019,40.8411 C118.9149,40.8491 118.9269,40.8571 118.9389,40.8631 C119.2239,41.0131 119.5099,41.1601 119.7969,41.3051 C120.0199,41.3951 120.2389,41.4931 120.4549,41.5941 C121.3069,39.7231 122.3209,37.8791 123.5759,36.2461 C124.9099,34.5111 126.5719,32.8881 128.8669,32.6531 C129.1899,32.6211 129.5159,32.6011 129.8409,32.5971 C130.1159,32.2171 130.4009,31.8431 130.6929,31.4741 C131.6159,30.3111 132.6549,29.2481 133.8069,28.3061 C134.9209,27.3961 136.1269,26.6061 137.4139,25.9591 C138.8509,25.2381 140.3909,24.7811 141.9879,24.6171 C143.7449,24.4391 145.5809,24.4351 147.3089,24.8421 C148.9339,25.2281 150.4499,25.9281 151.7159,27.0291 C152.9419,28.0991 153.8479,29.4361 154.4059,30.9621 C154.5519,31.3601 154.6809,31.7621 154.7919,32.1701 C155.9809,30.8361 157.4259,29.7361 159.2849,29.5451 C159.6089,29.5141 159.9339,29.4941 160.2589,29.4891 C160.5339,29.1111 160.8159,28.7361 161.1109,28.3651 C162.0349,27.2031 163.0729,26.1411 164.2249,25.1981 C165.3399,24.2891 166.5439,23.4971 167.8299,22.8521 C169.2699,22.1321 170.8049,21.6751 172.4049,21.5111 C174.1619,21.3301 175.9979,21.3251 177.7239,21.7361 C179.3499,22.1201 180.8669,22.8181 182.1329,23.9211 C182.6329,24.3561 183.0779,24.8371 183.4689,25.3541 C184.3619,23.5931 186.2639,22.4861 188.4859,22.4271 C190.2099,22.3811 191.8949,22.8351 193.4629,23.5211 C195.1189,24.2471 196.6129,25.2571 197.9349,26.4881 C198.1389,26.6801 198.3359,26.8781 198.5219,27.0831 C199.3619,26.1251 200.2389,25.1921 201.1689,24.3231 C202.1069,23.4491 203.1689,22.5941 204.3629,22.1071 L205.2099,21.7581 L206.1239,21.7771 C207.3749,21.7991 208.6059,22.1551 209.7589,22.6251 C211.0369,23.1451 212.2129,23.8641 213.2799,24.7361 C214.1569,25.4531 214.9449,26.2691 215.6389,27.1621 C215.6459,27.1541 215.6519,27.1461 215.6579,27.1381 C216.5879,26.0931 217.5689,25.0631 218.6269,24.1451 C219.9369,23.0071 221.4909,22.0591 223.2829,22.0911 C223.3859,22.0921 223.4879,22.0951 223.5959,22.0971 C224.6899,22.1181 224.8659,22.2151 225.4729,22.4661 C226.4829,22.7781 227.4199,23.2941 228.2859,23.8941 C229.2089,24.5311 230.0619,25.2661 230.8389,26.0741 C231.6469,26.9111 232.3649,27.8311 232.9759,28.8201 C233.7249,30.0381 234.2319,31.3751 234.3779,32.8011 C234.5489,34.4731 233.9689,36.2951 233.3919,37.8471 C230.6059,45.3201 227.5039,52.8221 225.6939,60.6071 C225.5869,61.0711 225.3969,61.8531 225.3889,62.3411 C225.4139,62.6131 225.4189,62.8801 225.4069,63.1401 M36.7769,64.6231 C37.3549,65.2581 37.8389,65.9741 38.1979,66.7741 L38.3529,67.1171 L38.4459,67.4831 C38.6539,68.2871 38.7389,69.1021 38.6879,69.9331 C38.5319,72.3581 36.8089,74.1031 34.5249,74.7191 L34.4729,74.7341 C33.2649,75.0411 32.0919,75.6101 31.0299,76.2511 C29.7279,77.0391 28.5059,77.9381 27.4009,78.9701 C26.4219,79.8951 25.5289,80.9121 24.7909,82.0371 C24.7659,82.0761 24.7399,82.1191 24.7099,82.1661 C25.1509,82.1551 25.5889,82.1241 26.0149,82.0791 C26.9749,81.9721 27.9289,81.8121 28.8639,81.5741 C31.1859,80.9601 33.4869,80.0631 35.6789,79.0901 L35.7199,79.0731 L35.7579,79.0551 C38.3449,77.9691 40.8319,76.6721 43.2099,75.1531 C45.2529,73.8681 47.1969,72.3491 48.8419,70.5751 L48.8679,70.5461 L48.8959,70.5181 C49.6829,69.7011 50.4259,68.6641 50.4719,67.4801 C50.4739,67.4571 50.4749,67.4251 50.4739,67.3991 C50.1479,66.9711 48.7779,66.4991 48.2569,66.3471 C45.4749,65.6661 42.6329,65.2261 39.7909,64.9471 C38.7869,64.8511 37.7809,64.7451 36.7769,64.6231 M48.9859,46.8891 C48.8769,46.4081 48.7999,45.9181 48.7489,45.4211 C48.5439,43.3471 49.0089,41.2061 49.6599,39.2431 C50.2949,37.3111 51.9419,35.0981 53.1529,33.4631 C54.8019,31.2401 56.5199,29.0691 58.1879,26.8591 C58.9579,25.8371 60.9569,23.1681 62.3949,20.8651 C60.5269,21.5291 58.7229,22.4921 57.0919,23.5031 C54.1359,25.3301 51.4019,27.4851 48.9379,29.9341 C46.5909,32.2741 44.4539,34.8501 42.7069,37.6651 C41.6639,39.3461 40.5509,41.5731 40.4779,43.5921 L40.4769,43.6481 C40.4599,43.9731 40.4169,44.6311 40.7599,44.8511 C42.0359,45.6861 43.6619,46.1461 45.1489,46.4011 C46.4219,46.6181 47.7019,46.7771 48.9859,46.8891" id="Fill-4" fill="#FA03A1"></path>
            <path d="M109.5292,45.8918 C108.5822,48.1208 107.5502,50.3068 106.4492,52.4638 C105.3742,54.5688 104.2042,56.7378 102.9372,58.9718 C101.6722,61.2048 100.3662,63.2608 99.0222,65.1358 C97.6782,67.0108 96.3242,68.5788 94.9592,69.8408 C93.5922,71.1028 92.3242,71.8158 91.1542,71.9818 C89.1762,72.2608 87.4672,71.7518 86.0232,70.4548 C84.5812,69.1588 83.7312,67.2538 83.4742,64.7418 C83.0772,60.8528 84.8652,56.0028 86.0482,52.3558 C86.5922,50.6758 87.1292,49.0168 87.6582,47.3798 C86.4832,49.1078 85.2592,50.9558 83.9872,52.9238 C80.2402,58.7158 76.9432,64.3658 75.3842,71.1958 C75.0512,72.6518 74.9182,73.6978 74.9832,74.3318 C75.0482,74.9678 74.6592,75.2848 73.8172,75.2828 C72.9742,75.2808 72.0292,75.0618 70.9822,74.6258 C69.9352,74.1898 68.9512,73.5938 68.0322,72.8378 C67.1122,72.0818 66.6102,71.2878 66.5252,70.4538 C66.4772,69.9818 66.4902,69.4148 66.5632,68.7558 C63.0652,74.9418 55.8012,81.1768 49.7062,84.5138 C50.9092,84.1568 52.1452,83.7998 53.4152,83.4428 C105.1692,68.9078 171.7692,60.7358 225.2622,67.5798 C229.9162,68.4478 232.4062,69.5738 232.7322,70.9548 C232.9552,71.9078 233.0482,73.0418 233.0072,74.3608 C232.9672,75.6788 232.8042,76.9748 232.5202,78.2488 C232.2332,79.5248 231.7522,80.7018 231.0702,81.7818 C230.3872,82.8618 229.3842,83.5748 228.0602,83.9178 C227.8382,83.9608 226.4062,83.8518 223.7692,83.5898 C221.1332,83.3298 218.3642,83.0018 215.4632,82.6108 C212.5612,82.2188 209.8412,81.8598 207.3072,81.5338 C204.7702,81.2078 203.4922,81.0018 203.4722,80.9138 L203.8092,80.8508 C204.4812,80.7218 205.7332,80.5718 207.5652,80.4008 C209.3992,80.2288 211.2312,80.0578 213.0642,79.8848 C214.8942,79.7148 216.6742,79.5538 218.3932,79.4048 C220.1142,79.2538 221.0862,79.1588 221.3092,79.1158 L221.5862,78.7898 C220.7082,78.0558 218.1682,77.4598 213.9652,77.0018 C209.7592,76.5458 204.7142,76.2478 198.8302,76.1148 C149.6662,74.9838 99.8222,80.4608 52.1792,92.3558 C44.3292,94.3158 37.9122,96.1358 32.9242,97.8178 C27.9352,99.4988 24.0822,101.0308 21.3642,102.4108 C18.6452,103.7908 16.3592,105.0208 14.5072,106.0998 C14.3242,106.3158 14.2132,106.0878 14.1742,105.4188 C14.1312,104.7488 14.4922,103.7978 15.2572,102.5678 C16.0192,101.3358 17.3162,99.8888 19.1482,98.2268 C20.9802,96.5658 23.7792,94.7848 27.5472,92.8868 C27.9892,92.6568 28.4452,92.4248 28.9162,92.1958 C26.6452,92.6288 24.4672,92.8538 22.3882,92.8798 C19.4632,92.9548 16.9692,92.5598 14.8902,91.7208 C12.8332,90.8728 11.3682,89.5108 10.4722,87.6368 C9.5772,85.7618 9.5732,83.3718 10.4622,80.4738 C11.3552,77.6448 12.8752,74.8978 15.0232,72.2218 C15.4282,71.6588 15.9682,71.0358 16.6172,70.3288 C17.2922,69.6248 18.0102,68.9048 18.8412,68.1498 C19.6282,67.4218 20.4892,66.7528 21.3982,66.1588 C22.2872,65.5738 23.1402,65.1638 23.9332,64.9648 C24.9122,64.7118 25.9682,64.6378 27.0822,64.7478 C28.1972,64.8598 29.2262,65.1148 30.1952,65.4778 C31.1622,65.8488 31.9982,66.3248 32.7002,66.8688 C33.4242,67.4198 33.8972,67.9958 34.1622,68.5848 C34.2522,68.9358 34.2952,69.2788 34.2712,69.6518 C34.2492,70.0188 33.9652,70.2878 33.3732,70.4478 C31.8952,70.8258 30.3432,71.4968 28.7422,72.4648 C27.1372,73.4348 25.6792,74.5228 24.3682,75.7488 C23.0582,76.9848 21.9582,78.2858 21.0702,79.6418 C20.2062,81.0048 19.7272,82.2658 19.6822,83.4548 C19.6512,84.4968 19.9502,85.2558 20.6252,85.7258 C21.2762,86.1958 22.1222,86.4698 23.1412,86.5438 C24.1622,86.6258 25.2912,86.6068 26.5052,86.4758 C27.7202,86.3388 28.8842,86.1348 29.9742,85.8568 C32.1332,85.2878 34.6402,84.3908 37.4732,83.1348 C40.3082,81.9428 42.9942,80.5398 45.5702,78.8948 C48.1292,77.2868 50.3052,75.5008 52.0842,73.5858 C53.8872,71.7118 54.8102,69.7388 54.8922,67.6718 C55.0112,65.0148 53.1692,63.1308 49.3922,62.0698 C46.4882,61.3548 43.4152,60.8578 40.2132,60.5418 C36.9882,60.2368 34.0102,59.8288 31.2562,59.2678 C28.4992,58.6908 26.1342,57.7138 24.2042,56.3028 C22.2532,54.9118 21.0412,52.7538 20.5882,49.7938 C20.1332,46.3938 20.8992,42.6188 22.9182,38.5388 C26.8082,30.6608 34.9312,22.1628 44.3972,16.4668 C49.2542,13.5588 54.3032,11.5998 59.5682,10.4938 C63.7162,9.6408 67.3112,9.5928 70.3262,10.2488 C76.4492,11.5678 77.6912,15.0308 76.6802,19.3398 C75.6692,23.6488 72.3462,28.8458 69.3202,33.6958 C66.3942,38.3918 67.4392,46.2108 61.9582,48.7608 C61.4882,48.9908 60.9442,49.1808 60.3762,49.3138 C59.7862,49.4628 59.1892,49.5358 58.5662,49.5318 C57.6902,49.5358 56.8522,49.3988 56.0512,49.1378 C55.2522,48.8688 54.5782,48.3908 54.0742,47.7038 C53.5732,47.0088 53.2632,46.1018 53.1522,44.9828 C53.0382,43.8388 53.2742,42.3928 53.8622,40.6308 C55.4982,35.5998 77.8292,13.3228 63.7632,15.8918 C60.9842,16.4588 57.9922,17.7428 54.7652,19.7408 C51.5612,21.7198 48.5642,24.0688 45.8192,26.7978 C43.0752,29.5288 40.7762,32.3868 38.9442,35.3358 C37.1132,38.2938 36.1422,40.9968 36.0572,43.4368 C35.9452,45.8098 36.7162,47.5108 38.3462,48.5588 C39.9542,49.6088 41.9822,50.3458 44.4062,50.7628 C46.8532,51.1788 49.4282,51.4218 52.1792,51.5068 C61.6942,52.4958 66.4222,55.2838 68.0122,58.8888 C68.1622,58.3538 68.3202,57.8048 68.4902,57.2398 C69.9752,52.2858 71.7372,47.4128 73.4682,42.5398 C74.3582,40.0308 75.2302,37.5438 76.0842,35.0798 C76.9372,32.6168 77.6872,30.3318 78.3322,28.2268 C78.9762,26.1208 79.4812,24.2518 79.8462,22.6178 C80.2132,20.9828 80.3492,19.7198 80.2582,18.8288 C80.1922,18.1808 80.6172,17.8318 81.5332,17.7858 C82.4502,17.7388 83.4912,17.9098 84.6562,18.2998 C85.8222,18.6908 86.9022,19.2368 87.8952,19.9398 C88.8882,20.6418 89.4272,21.4178 89.5152,22.2688 C89.6232,23.3228 89.4712,24.7518 89.0622,26.5568 C88.6532,28.3618 88.0922,30.3938 87.3822,32.6518 C86.6712,34.9108 85.8342,37.3398 84.8722,39.9428 C83.9092,42.5448 82.9492,45.1678 81.9912,47.8108 L81.5992,48.7898 L81.6052,48.8518 C82.6632,47.1818 83.7442,45.5378 84.8482,43.9228 C85.9532,42.3078 86.9912,40.8458 87.9632,39.5378 C88.9342,38.2288 89.8062,37.1498 90.5802,36.3008 C91.3522,35.4518 91.9572,34.9538 92.3932,34.8118 C92.8732,34.7028 93.4772,34.8018 94.2042,35.1108 C94.9322,35.4178 95.6512,35.8408 96.3602,36.3778 C97.0702,36.9138 97.6992,37.5548 98.2462,38.2998 C98.7942,39.0448 99.1072,39.8238 99.1902,40.6328 C99.2532,41.2418 99.0162,42.3328 98.4812,43.9098 C97.9462,45.4848 97.3162,47.3308 96.5912,49.4488 C89.2332,70.0508 95.6632,65.3858 103.1682,50.1148 C103.1672,50.0058 103.1962,49.8988 103.2582,49.7888 L103.2642,49.8498 C104.2012,47.7608 105.0012,45.6468 105.8102,43.5098 C105.9712,43.0828 106.1312,42.6368 106.2882,42.1708 C106.0362,41.7048 105.8272,41.1628 105.6612,40.5458 C105.4962,39.9278 105.3782,39.2758 105.3072,38.5858 C105.1712,37.2488 105.1982,35.9148 105.3902,34.5848 C105.5822,33.2548 105.8882,32.0468 106.3092,30.9598 C106.7312,29.8728 107.2332,28.9828 107.8182,28.2878 C108.4022,27.5938 109.0382,27.2108 109.7272,27.1408 C110.3352,27.0788 111.0722,27.0758 111.9372,27.1298 C112.8022,27.1848 113.6262,27.3268 114.4072,27.5538 C115.1862,27.7818 115.8662,28.1208 116.4452,28.5738 C117.0232,29.0268 117.3492,29.6178 117.4252,30.3468 C117.4912,30.9958 117.3782,31.6928 117.0862,32.4388 C116.7942,33.1848 116.4672,34.0068 116.1092,34.9038 C115.6372,35.8928 115.2202,36.9278 114.8602,38.0088 C114.5002,39.0898 114.3672,40.0968 114.4632,41.0288 C114.5332,41.7178 114.6852,42.3058 114.9202,42.7938 C115.1532,43.2818 115.4392,43.6818 115.7792,43.9958 C116.1182,44.3088 116.4822,44.5688 116.8722,44.7748 C117.2612,44.9798 117.6292,45.1678 117.9732,45.3378 C118.6992,45.6318 119.3042,45.9488 119.7902,46.2878 C120.2752,46.6268 120.5572,47.1818 120.6352,47.9528 C120.6852,48.4388 120.5552,49.1778 120.2482,50.1718 C119.9402,51.1658 119.5622,52.2788 119.1152,53.5118 C113.5972,70.1108 120.3842,57.3808 122.4342,49.3348 C122.9752,47.2118 123.6552,45.2478 124.4732,43.4458 C125.2932,41.6418 126.1632,40.1408 127.0842,38.9408 C128.0062,37.7418 128.7502,37.1128 129.3172,37.0548 C129.7222,37.0128 130.1732,37.0078 130.6672,37.0388 C131.1622,37.0708 131.6382,37.1238 132.0952,37.2008 C132.7262,36.1538 133.4142,35.1628 134.1572,34.2268 C134.9002,33.2898 135.7162,32.4588 136.6042,31.7348 C137.4932,31.0088 138.4242,30.4028 139.3972,29.9138 C140.3712,29.4258 141.3842,29.1268 142.4382,29.0198 C143.9782,28.8628 145.2612,28.9058 146.2902,29.1488 C147.3182,29.3908 148.1582,29.7968 148.8092,30.3658 C149.4612,30.9328 149.9422,31.6408 150.2552,32.4898 C150.5662,33.3378 150.7742,34.2688 150.8782,35.2818 C151.4202,40.5898 150.7442,45.7978 148.8502,50.9048 C152.7142,47.9998 153.8222,40.6238 157.5022,35.8328 C158.4232,34.6338 159.1682,34.0048 159.7342,33.9478 C160.1392,33.9058 160.5902,33.9008 161.0842,33.9318 C161.5792,33.9628 162.0552,34.0168 162.5132,34.0928 C163.1432,33.0458 163.8302,32.0548 164.5742,31.1198 C165.3182,30.1828 166.1332,29.3518 167.0212,28.6268 C167.9102,27.9018 168.8412,27.2948 169.8142,26.8058 C170.7882,26.3188 171.8012,26.0198 172.8552,25.9128 C174.3942,25.7548 175.6792,25.7978 176.7072,26.0408 C177.7352,26.2838 178.5752,26.6898 179.2262,27.2578 C179.8782,27.8258 180.3602,28.5338 180.6722,29.3818 C180.9832,30.2308 181.1912,31.1618 181.2952,32.1738 C181.8372,37.4828 181.1612,42.6908 179.2672,47.7968 C182.8212,45.3188 184.9252,36.7558 186.4842,32.5438 C187.1892,30.6348 187.4802,29.0748 187.3562,27.8588 C187.2902,27.2098 187.7062,26.8728 188.6042,26.8498 C189.5032,26.8258 190.5312,27.0668 191.6872,27.5738 C192.8452,28.0798 193.9222,28.7978 194.9172,29.7268 C195.9132,30.6548 196.4732,31.7258 196.5962,32.9418 C196.6592,33.5498 196.5892,34.2668 196.3862,35.0918 C196.1842,35.9168 195.9092,36.8318 195.5612,37.8368 C196.5692,36.4808 197.5992,35.1448 198.6532,33.8288 C199.7062,32.5138 200.7002,31.3198 201.6332,30.2448 C202.5682,29.1688 203.4192,28.2748 204.1842,27.5608 C204.9512,26.8468 205.5702,26.3928 206.0422,26.1998 C206.5752,26.2088 207.2582,26.3838 208.0912,26.7218 C208.9242,27.0618 209.7202,27.5408 210.4802,28.1618 C211.2392,28.7828 211.9192,29.5228 212.5182,30.3828 C213.1182,31.2438 213.4722,32.2008 213.5802,33.2538 C213.6372,33.8218 213.5752,34.5078 213.3912,35.3138 C213.2072,36.1188 212.9412,37.0238 212.5932,38.0288 C213.6742,36.5928 214.7692,35.1768 215.8752,33.7818 C216.9812,32.3858 218.0112,31.1518 218.9662,30.0778 C219.9222,29.0018 220.7752,28.1388 221.5272,27.4848 C222.2792,26.8308 222.8402,26.5078 223.2092,26.5148 C223.2912,26.5168 223.3932,26.5188 223.5172,26.5208 C223.6392,26.5228 223.8082,26.5668 224.0212,26.6518 C224.5262,26.7818 225.1092,27.0758 225.7692,27.5338 C226.4302,27.9898 227.0582,28.5268 227.6542,29.1448 C228.2502,29.7628 228.7672,30.4288 229.2102,31.1448 C229.6512,31.8608 229.9072,32.5628 229.9772,33.2518 C230.0362,33.8198 229.7912,34.8358 229.2452,36.3018 C226.4052,43.9238 223.2312,51.6608 221.3842,59.6048 C221.0502,61.0418 220.9162,62.0788 220.9802,62.7138 C221.0462,63.3488 220.6552,63.6498 219.8092,63.6158 C218.9642,63.5808 218.0152,63.3278 216.9652,62.8538 C215.9132,62.3788 214.9252,61.7478 214.0032,60.9598 C213.0802,60.1718 212.5772,59.3618 212.4922,58.5278 C212.4022,57.6548 212.5212,56.4688 212.8492,54.9708 C214.1292,49.1388 216.3572,43.4578 218.4752,37.8948 C215.8922,41.1648 213.3412,44.4738 210.9932,47.9188 C208.1452,52.0968 207.1142,53.9718 205.9822,58.8438 C205.6472,60.2818 205.5122,61.3188 205.5772,61.9538 C205.6422,62.5888 205.2522,62.8888 204.4072,62.8548 C203.5602,62.8218 202.6122,62.5668 201.5612,62.0928 C200.5092,61.6188 199.5232,60.9878 198.5992,60.1998 C197.6762,59.4118 197.1742,58.6008 197.0892,57.7668 C196.8912,55.8418 196.8842,52.6128 197.1882,50.7588 C198.8112,40.8728 205.9302,30.3328 194.2192,47.2458 C191.5012,51.1718 189.9002,53.7648 188.8242,58.3968 C188.4892,59.8338 188.3542,60.8708 188.4202,61.5058 C188.4842,62.1408 188.0942,62.4418 187.2492,62.4078 C186.4022,62.3738 185.4542,62.1208 184.4032,61.6458 C183.3522,61.1718 182.3652,60.5398 181.4422,59.7518 C180.5192,58.9638 180.0152,58.1538 179.9302,57.3198 C179.7852,55.9018 179.8532,53.8948 179.8912,52.4068 C178.8932,52.9138 177.8392,53.3078 176.7262,53.5838 C175.1642,56.3238 173.3102,58.6208 171.1662,60.4778 C169.0222,62.3348 166.7152,63.3888 164.2422,63.6418 C162.9052,63.7788 161.5712,63.6488 160.2412,63.2518 C158.9112,62.8558 157.6972,62.1918 156.5982,61.2598 C155.5002,60.3278 154.5682,59.1228 153.8022,57.6458 C153.1912,56.4628 152.7552,55.0908 152.4982,53.5318 C152.0002,53.9228 151.4852,54.2958 150.9522,54.6508 C149.5342,55.5938 147.9862,56.2748 146.3092,56.6918 C144.7462,59.4308 142.8932,61.7288 140.7492,63.5848 C138.6042,65.4418 136.2972,66.4958 133.8252,66.7488 C132.4882,66.8858 131.1542,66.7558 129.8242,66.3598 C128.4942,65.9628 127.2792,65.2988 126.1812,64.3668 C125.3562,63.6668 124.6242,62.8128 123.9872,61.8048 L123.8272,62.0588 C122.6802,63.8548 121.4912,65.3478 120.2622,66.5378 C119.0322,67.7288 117.8302,68.3828 116.6552,68.5028 C115.4802,68.6228 114.4032,68.5078 113.4262,68.1578 C112.4482,67.8068 111.5902,67.3218 110.8512,66.7018 C110.1122,66.0798 109.5142,65.3428 109.0592,64.4888 C108.6032,63.6348 108.3282,62.7418 108.2322,61.8098 C108.1132,60.6338 108.2122,59.2018 108.5312,57.5108 C109.1672,54.1348 112.7022,48.0628 109.5292,45.8918 M170.9942,53.9858 C167.9412,53.5058 164.9532,52.1408 162.6692,50.0448 C159.8282,59.3848 164.9982,62.7668 170.9942,53.9858 M169.8242,46.7348 C169.9192,47.6668 170.2222,48.4348 170.7342,49.0378 C171.2462,49.6398 172.0982,49.9618 173.2902,50.0038 C173.9602,48.5438 174.5422,47.0318 175.0372,45.4648 C181.3292,25.5698 168.4282,33.0788 169.8242,46.7348 M140.5772,57.0928 C137.5232,56.6138 134.5362,55.2478 132.2522,53.1528 C129.4112,62.4928 134.5812,65.8738 140.5772,57.0928 M139.4062,49.8418 C139.5022,50.7748 139.8042,51.5408 140.3172,52.1448 C140.8292,52.7468 141.6812,53.0698 142.8732,53.1118 C143.5432,51.6518 144.1252,50.1378 144.6202,48.5728 C150.9112,28.6768 138.0112,36.1868 139.4062,49.8418" id="Fill-6" fill="#03F0E8"></path>
            <path d="M206.1688,26.8684 C205.6468,27.1264 205.0308,27.6774 204.6358,28.0454 C203.7528,28.8684 202.9248,29.7674 202.1338,30.6784 C201.1198,31.8454 200.1358,33.0374 199.1698,34.2424 L198.7628,34.7544 C198.7338,34.8964 198.7008,35.0434 198.6648,35.1924 C198.4628,36.0174 198.1878,36.9324 197.8398,37.9374 C198.8478,36.5814 199.8788,35.2444 200.9308,33.9304 C201.9838,32.6144 202.9788,31.4194 203.9118,30.3444 C204.8468,29.2694 205.6968,28.3754 206.4628,27.6614 C206.6988,27.4404 206.9218,27.2444 207.1298,27.0734 C206.8098,26.9724 206.4768,26.8924 206.1688,26.8684 L206.1688,26.8684 Z M189.6538,27.6034 C189.3098,27.5374 188.9618,27.5024 188.6218,27.5124 C188.4038,27.5174 187.9838,27.4874 188.0158,27.7914 C188.1808,29.4154 187.6638,31.2634 187.1058,32.7734 C185.9818,35.8084 184.6058,41.0254 182.5568,44.7504 C182.2708,45.8034 181.9338,46.8524 181.5458,47.8974 C185.0998,45.4184 187.2038,36.8564 188.7628,32.6444 C189.4678,30.7354 189.7588,29.1744 189.6348,27.9584 C189.6208,27.8274 189.6288,27.7094 189.6538,27.6034 L189.6538,27.6034 Z M172.8148,26.5824 C171.8678,26.6924 170.9648,26.9704 170.1108,27.3984 C169.1568,27.8774 168.2668,28.4654 167.4398,29.1394 C166.5718,29.8484 165.7898,30.6524 165.0928,31.5304 C164.4568,32.3294 163.8698,33.1644 163.3288,34.0304 L163.3618,34.0324 C163.8568,34.0634 164.3338,34.1174 164.7908,34.1934 C165.4218,33.1464 166.1078,32.1554 166.8528,31.2194 C167.5958,30.2834 168.4118,29.4534 169.2998,28.7274 C170.1888,28.0024 171.1188,27.3954 172.0928,26.9064 C172.3298,26.7874 172.5708,26.6804 172.8148,26.5824 L172.8148,26.5824 Z M160.9968,34.5894 C160.6008,34.5654 160.1968,34.5654 159.8018,34.6054 C159.2858,34.6584 158.3148,35.8604 158.0258,36.2364 C156.9118,37.6874 156.0588,39.3574 155.3018,41.0174 C154.3808,43.0344 153.4128,45.6774 152.1198,47.9274 C151.8388,48.9564 151.5078,49.9834 151.1288,51.0044 C154.9918,48.1004 156.1008,40.7234 159.7788,35.9334 C160.2278,35.3514 160.6328,34.9024 160.9968,34.5894 L160.9968,34.5894 Z M142.3978,29.6894 C141.4508,29.8004 140.5478,30.0774 139.6938,30.5054 C138.7398,30.9834 137.8488,31.5724 137.0228,32.2474 C136.1548,32.9564 135.3718,33.7604 134.6758,34.6384 C134.0398,35.4364 133.4518,36.2714 132.9118,37.1384 L132.9448,37.1394 C133.4398,37.1714 133.9158,37.2244 134.3738,37.3014 C135.0048,36.2544 135.6908,35.2624 136.4358,34.3264 C137.1788,33.3904 137.9948,32.5604 138.8828,31.8354 C139.7718,31.1094 140.7018,30.5024 141.6758,30.0144 C141.9138,29.8944 142.1538,29.7864 142.3978,29.6894 L142.3978,29.6894 Z M130.5798,37.6974 C130.1828,37.6734 129.7798,37.6734 129.3848,37.7134 C128.8678,37.7654 127.8988,38.9684 127.6088,39.3444 C126.5898,40.6724 125.7678,42.1974 125.0768,43.7194 C124.2318,45.5774 123.5788,47.5204 123.0758,49.4984 C122.7218,50.8894 122.2738,52.2684 121.7868,53.6194 C121.2548,55.0974 120.6628,56.5894 120.0078,58.0354 C117.2998,67.4914 122.8868,56.6054 124.7128,49.4344 C125.2528,47.3114 125.9338,45.3484 126.7518,43.5464 C127.5708,41.7424 128.4408,40.2414 129.3618,39.0414 C129.8108,38.4594 130.2158,38.0104 130.5798,37.6974 L130.5798,37.6974 Z M110.7588,27.7524 C110.4348,27.7524 110.1108,27.7674 109.7948,27.8004 C109.1898,27.8614 108.7018,28.2644 108.3238,28.7144 C107.7148,29.4384 107.2678,30.3204 106.9268,31.1994 C106.4928,32.3174 106.2158,33.4954 106.0448,34.6804 C105.8618,35.9534 105.8348,37.2384 105.9658,38.5184 C106.0298,39.1444 106.1378,39.7664 106.3008,40.3744 C106.4378,40.8844 106.6178,41.3914 106.8698,41.8554 L107.0078,42.1084 L106.9158,42.3824 C106.7618,42.8394 106.6008,43.2934 106.4298,43.7444 C105.6188,45.8874 104.8058,48.0284 103.8688,50.1204 L103.8298,50.2074 L103.8308,50.2654 L103.7618,50.4064 C103.6848,50.5614 103.6078,50.7184 103.5308,50.8744 L102.8588,52.3744 L102.8448,52.2384 C101.4018,55.0624 99.7858,57.9334 97.9738,60.4564 C97.5778,61.0074 96.7418,62.1874 95.8148,63.0204 C96.7368,64.8394 100.8928,59.4804 105.4458,50.2154 C105.4448,50.1064 105.4748,49.9984 105.5368,49.8894 L105.5428,49.9504 C106.4798,47.8604 107.2798,45.7474 108.0888,43.6094 C108.2498,43.1834 108.4088,42.7374 108.5658,42.2714 C108.3138,41.8064 108.1058,41.2644 107.9398,40.6464 C107.7738,40.0294 107.6558,39.3754 107.5858,38.6864 C107.4488,37.3484 107.4778,36.0144 107.6688,34.6854 C107.8598,33.3564 108.1668,32.1474 108.5878,31.0604 C109.0098,29.9734 109.5118,29.0834 110.0958,28.3894 C110.3098,28.1354 110.5308,27.9224 110.7588,27.7524 L110.7588,27.7524 Z M93.6478,35.6024 C93.3038,35.4814 92.8988,35.3874 92.5718,35.4504 C92.1178,35.6214 91.3748,36.4104 91.0688,36.7464 C90.1528,37.7514 89.3038,38.8414 88.4938,39.9314 C87.5728,41.1714 86.6808,42.4304 85.8048,43.7004 C85.2918,45.0974 84.7798,46.5024 84.2698,47.9114 L83.8778,48.8904 L83.8838,48.9514 C84.9408,47.2814 86.0228,45.6394 87.1268,44.0234 C88.2318,42.4084 89.2698,40.9464 90.2408,39.6374 C91.2118,38.3294 92.0848,37.2504 92.8578,36.4014 C93.1448,36.0874 93.4068,35.8194 93.6478,35.6024 L93.6478,35.6024 Z M82.5838,18.4884 C82.2438,18.4464 81.9018,18.4304 81.5668,18.4474 C81.3458,18.4584 80.8848,18.4444 80.9168,18.7624 C81.0448,20.0164 80.7658,21.5394 80.4918,22.7624 C80.0668,24.6664 79.5348,26.5554 78.9648,28.4204 C78.2578,30.7264 77.4988,33.0174 76.7098,35.2974 C75.8458,37.7874 74.9728,40.2764 74.0918,42.7614 C72.3898,47.5554 70.6598,52.3424 69.1898,57.2134 C69.6548,57.7774 70.0188,58.3714 70.2908,58.9894 C70.4398,58.4544 70.5988,57.9054 70.7688,57.3404 C72.2538,52.3864 74.0158,47.5134 75.7458,42.6404 C76.6358,40.1314 77.5088,37.6434 78.3618,35.1814 C79.2158,32.7174 79.9648,30.4314 80.6098,28.3274 C81.2548,26.2224 81.7598,24.3514 82.1248,22.7184 C82.4898,21.0844 82.6278,19.8214 82.5358,18.9294 C82.5198,18.7624 82.5358,18.6154 82.5838,18.4884 L82.5838,18.4884 Z M68.2888,15.7944 C68.4218,15.9154 68.5418,16.0534 68.6468,16.2114 C69.7438,17.8694 68.3408,20.6584 67.5158,22.1624 C66.0408,24.8504 64.0938,27.4734 62.2468,29.9224 C60.5898,32.1194 58.8798,34.2784 57.2408,36.4904 C56.4598,37.5444 54.8908,39.6074 54.4898,40.8394 C54.0808,42.0684 53.6808,43.6114 53.8108,44.9174 C53.8948,45.7534 54.1118,46.6244 54.6088,47.3134 C55.0298,47.8884 55.5888,48.2834 56.2588,48.5094 C56.6238,48.6284 56.9988,48.7174 57.3778,48.7774 C56.9858,48.5214 56.6408,48.1974 56.3538,47.8044 C55.8518,47.1084 55.5418,46.2024 55.4298,45.0834 C55.3158,43.9394 55.5528,42.4934 56.1408,40.7314 C57.6728,36.0184 77.3638,16.1744 68.2888,15.7944 L68.2888,15.7944 Z M58.7318,11.3564 C53.7798,12.5054 49.1098,14.4164 44.7378,17.0344 C36.4658,22.0124 27.8118,30.1234 23.5108,38.8334 C21.8588,42.1714 20.7408,45.9514 21.2418,49.6964 C21.6108,52.1084 22.5588,54.3154 24.5928,55.7664 C26.1268,56.8894 27.8738,57.6644 29.6908,58.1944 C28.5168,57.7034 27.4448,57.1074 26.4818,56.4034 C24.5308,55.0124 23.3188,52.8544 22.8658,49.8944 C22.4108,46.4934 23.1778,42.7184 25.1958,38.6394 C29.0868,30.7604 37.2088,22.2644 46.6758,16.5674 C50.5658,14.2364 54.5828,12.5174 58.7318,11.3564 L58.7318,11.3564 Z M51.5688,62.1434 C53.8538,63.1704 55.6808,64.8734 55.5548,67.6994 C55.4548,70.1814 54.2548,72.2844 52.5668,74.0384 C50.6178,76.1384 48.3468,77.9314 45.9268,79.4524 C43.3178,81.1184 40.5858,82.5444 37.7388,83.7414 C35.6328,84.6754 33.4478,85.5334 31.2268,86.1924 C31.5748,86.1204 31.9178,86.0434 32.2528,85.9574 C34.4118,85.3874 36.9188,84.4914 39.7518,83.2354 C42.5878,82.0434 45.2718,80.6404 47.8498,78.9944 C50.4068,77.3874 52.5838,75.6014 54.3618,73.6864 C56.1658,71.8124 57.0888,69.8394 57.1708,67.7724 C57.2898,65.1144 55.4468,63.2304 51.6708,62.1704 L51.5688,62.1434 Z M25.2278,65.4044 C24.8468,65.4444 24.4678,65.5114 24.0958,65.6074 C23.2738,65.8124 22.4648,66.2494 21.7608,66.7134 C20.8878,67.2844 20.0558,67.9284 19.2858,68.6394 C18.5288,69.3274 17.8068,70.0444 17.1028,70.7784 C16.5688,71.3594 16.0228,71.9664 15.5618,72.6074 L15.5508,72.6224 L15.5398,72.6364 C13.6078,75.0424 12.0258,77.7194 11.0948,80.6694 C10.4458,82.7814 10.0808,85.2814 11.0698,87.3514 C11.9268,89.1434 13.3098,90.3534 15.1398,91.1074 C15.6678,91.3204 16.2128,91.4984 16.7648,91.6434 C14.9188,90.7894 13.5868,89.4854 12.7508,87.7374 C11.8558,85.8624 11.8518,83.4724 12.7408,80.5744 C13.6338,77.7454 15.1538,74.9974 17.3028,72.3224 C17.7068,71.7594 18.2468,71.1364 18.8958,70.4284 C19.5698,69.7254 20.2888,69.0054 21.1178,68.2504 C21.9058,67.5224 22.7678,66.8534 23.6768,66.2604 C24.2078,65.9094 24.7278,65.6214 25.2278,65.4044 L25.2278,65.4044 Z M29.6898,92.5554 L29.2058,92.7904 C28.7508,93.0124 28.2988,93.2414 27.8468,93.4764 C25.0818,94.8694 21.8968,96.6284 19.5928,98.7184 C18.2748,99.9134 16.7608,101.3954 15.8178,102.9174 C15.4948,103.4374 14.9248,104.4294 14.8418,105.1424 C15.4868,104.7734 16.1378,104.4114 16.7918,104.0564 C16.9708,103.6414 17.2168,103.1804 17.5348,102.6684 C18.2968,101.4364 19.5948,99.9894 21.4268,98.3274 C23.2588,96.6664 26.0578,94.8854 29.8248,92.9874 C30.2678,92.7574 30.7238,92.5254 31.1938,92.2964 C30.6878,92.3924 30.1878,92.4784 29.6898,92.5554 L29.6898,92.5554 Z M221.4778,77.9344 C221.6838,78.0444 221.8628,78.1604 222.0108,78.2834 L222.5208,78.7114 L221.9448,79.3894 C222.8798,79.3044 223.4278,79.2464 223.5878,79.2164 L223.8628,78.8904 C223.4458,78.5414 222.6498,78.2224 221.4778,77.9344 L221.4778,77.9344 Z M66.5978,80.6334 C62.2368,81.7224 57.8998,82.8704 53.5948,84.0804 C53.1528,84.2044 52.7128,84.3284 52.2718,84.4554 L51.9838,84.6134 C53.1878,84.2574 54.4238,83.9004 55.6928,83.5434 C59.2598,82.5414 62.8988,81.5704 66.5978,80.6334 L66.5978,80.6334 Z M67.4068,71.1104 C67.6498,71.5874 68.0518,71.9974 68.4518,72.3264 C69.2978,73.0214 70.2258,73.5944 71.2358,74.0144 C71.7158,74.2144 72.2318,74.3894 72.7558,74.5004 C71.8968,74.0914 71.0798,73.5714 70.3108,72.9374 C69.3908,72.1814 68.8888,71.3884 68.8038,70.5544 C68.7558,70.0814 68.7688,69.5154 68.8418,68.8564 C68.4158,69.6084 67.9348,70.3614 67.4068,71.1104 L67.4068,71.1104 Z M86.7868,52.2214 L86.6778,52.5594 C85.5118,56.1554 83.7458,60.8824 84.1328,64.6754 C84.3348,66.6444 84.9538,68.6034 86.4658,69.9634 C87.3388,70.7484 88.3078,71.1984 89.3688,71.3424 C88.9988,71.1234 88.6428,70.8614 88.3018,70.5564 C86.8588,69.2594 86.0098,67.3544 85.7528,64.8424 C85.3558,60.9524 87.1438,56.1034 88.3258,52.4554 C88.8708,50.7754 89.4078,49.1174 89.9368,47.4804 C88.9228,48.9714 87.8738,50.5514 86.7868,52.2214 L86.7868,52.2214 Z M111.2788,47.2104 C112.2298,50.2644 109.6778,54.9954 109.1818,57.6344 C108.9338,58.9474 108.7548,60.4064 108.8918,61.7424 C108.9798,62.6014 109.2358,63.4144 109.6438,64.1774 C110.0578,64.9544 110.6038,65.6284 111.2768,66.1934 C111.9818,66.7864 112.7838,67.2244 113.6498,67.5344 C113.9688,67.6484 114.2948,67.7324 114.6238,67.7894 C114.0808,67.5114 113.5818,67.1814 113.1298,66.8014 C112.3908,66.1814 111.7928,65.4434 111.3378,64.5894 C110.8818,63.7344 110.6068,62.8424 110.5118,61.9104 C110.3918,60.7344 110.4898,59.3024 110.8088,57.6114 C111.4438,54.2354 114.9808,48.1624 111.8068,45.9924 C111.6338,46.3994 111.4588,46.8054 111.2788,47.2104 L111.2788,47.2104 Z M125.6238,62.8914 C125.9298,63.2374 126.2568,63.5624 126.6088,63.8624 C127.6148,64.7164 128.7488,65.3484 130.0138,65.7244 C130.2168,65.7864 130.4218,65.8394 130.6268,65.8874 C129.8598,65.5144 129.1378,65.0424 128.4598,64.4674 C127.6348,63.7674 126.9018,62.9134 126.2658,61.9044 L126.1058,62.1594 C125.9448,62.4094 125.7848,62.6524 125.6238,62.8914 L125.6238,62.8914 Z M153.3988,54.6384 C153.6288,55.5724 153.9488,56.4874 154.3918,57.3414 C155.0578,58.6294 155.9158,59.8124 157.0258,60.7544 C158.0328,61.6084 159.1658,62.2404 160.4298,62.6174 C160.6338,62.6794 160.8388,62.7314 161.0438,62.7784 C160.2768,62.4084 159.5548,61.9354 158.8768,61.3604 C157.7778,60.4284 156.8468,59.2234 156.0808,57.7454 C155.4688,56.5634 155.0328,55.1904 154.7748,53.6324 C154.3308,53.9814 153.8728,54.3164 153.3988,54.6384 L153.3988,54.6384 Z M180.5318,53.2184 C180.4928,54.5554 180.4568,55.9544 180.5888,57.2524 C180.6718,58.0564 181.2828,58.7464 181.8718,59.2484 C182.7218,59.9734 183.6568,60.5824 184.6758,61.0424 C185.2328,61.2944 185.8438,61.5164 186.4608,61.6424 C185.4918,61.1814 184.5788,60.5854 183.7208,59.8524 C182.7978,59.0634 182.2938,58.2544 182.2088,57.4204 C182.0648,56.0024 182.1318,53.9954 182.1698,52.5074 C181.6398,52.7764 181.0948,53.0134 180.5318,53.2184 L180.5318,53.2184 Z M200.4568,41.6674 L200.3448,41.9774 C199.4908,44.3604 198.6928,46.7774 198.1518,49.2534 C198.0348,49.7874 197.9308,50.3254 197.8418,50.8664 C197.5148,52.8614 197.5408,55.6814 197.7468,57.6994 C197.8288,58.5044 198.4408,59.1924 199.0288,59.6964 C199.8788,60.4214 200.8148,61.0304 201.8338,61.4894 C202.3918,61.7414 203.0008,61.9654 203.6188,62.0904 C202.6498,61.6294 201.7358,61.0324 200.8778,60.3004 C199.9548,59.5124 199.4518,58.7014 199.3668,57.8674 C199.1698,55.9424 199.1628,52.7134 199.4668,50.8594 C200.8558,42.3964 206.2728,33.4564 200.4568,41.6674 L200.4568,41.6674 Z M217.6078,42.0374 C215.9978,46.3194 214.4748,50.6504 213.4968,55.1134 C213.2728,56.1294 213.0438,57.4174 213.1498,58.4604 C213.2318,59.2644 213.8448,59.9544 214.4328,60.4564 C215.2828,61.1814 216.2178,61.7904 217.2358,62.2504 C217.7948,62.5024 218.4028,62.7254 219.0218,62.8504 C218.0518,62.3894 217.1398,61.7934 216.2808,61.0604 C215.3578,60.2724 214.8558,59.4614 214.7698,58.6284 C214.6808,57.7554 214.7998,56.5694 215.1278,55.0714 C216.4058,49.2394 218.6358,43.5584 220.7538,37.9954 C219.6958,39.3344 218.6438,40.6794 217.6078,42.0374 L217.6078,42.0374 Z M224.0728,27.3604 C224.0008,27.3344 223.9278,27.3104 223.8558,27.2934 L223.8148,27.2824 L223.7758,27.2664 C223.7098,27.2404 223.5728,27.1864 223.5048,27.1814 C223.4018,27.1804 223.3008,27.1794 223.1968,27.1774 C222.9198,27.1834 222.1618,27.8094 221.9618,27.9844 C221.0718,28.7574 220.2428,29.6384 219.4618,30.5154 C218.4018,31.7094 217.3848,32.9424 216.3948,34.1924 C216.1798,34.4634 215.9658,34.7334 215.7528,35.0054 C215.7288,35.1374 215.7008,35.2734 215.6688,35.4134 C215.4848,36.2194 215.2198,37.1244 214.8718,38.1294 C215.9528,36.6924 217.0478,35.2774 218.1528,33.8824 C219.2598,32.4864 220.2898,31.2524 221.2448,30.1774 C222.1998,29.1024 223.0538,28.2394 223.8058,27.5854 C223.8978,27.5054 223.9858,27.4304 224.0728,27.3604 L224.0728,27.3604 Z M171.5408,54.3584 C170.5908,55.7504 168.7508,58.0894 166.7258,59.1744 C168.4178,59.2924 170.7728,57.7474 173.2728,54.0854 C172.8158,54.0144 172.3638,53.9234 171.9138,53.8114 L171.5408,54.3584 Z M164.7478,50.8434 C166.1408,51.7854 167.7008,52.4954 169.3208,52.9454 C167.7178,52.2574 166.2228,51.3154 164.9468,50.1454 C164.8748,50.3824 164.8108,50.6144 164.7478,50.8434 L164.7478,50.8434 Z M176.7358,33.5364 C178.5828,36.1844 176.2528,43.8184 175.6688,45.6644 C175.2188,47.0884 174.6908,48.4854 174.0858,49.8494 C174.5018,49.9994 174.9958,50.0844 175.5678,50.1044 C176.2378,48.6444 176.8198,47.1314 177.3148,45.5654 C180.3718,35.8994 178.8988,32.7024 176.7358,33.5364 L176.7358,33.5364 Z M141.1238,57.4664 C140.1738,58.8574 138.3338,61.1964 136.3088,62.2814 C138.0008,62.3994 140.3558,60.8544 142.8558,57.1924 C142.3988,57.1214 141.9468,57.0294 141.4968,56.9194 L141.1238,57.4664 Z M134.3308,53.9504 C135.7238,54.8924 137.2838,55.6024 138.9038,56.0534 C137.3018,55.3644 135.8058,54.4234 134.5298,53.2534 C134.4578,53.4894 134.3928,53.7214 134.3308,53.9504 L134.3308,53.9504 Z M146.3188,36.6424 C148.1668,39.2914 145.8358,46.9254 145.2508,48.7724 C144.8008,50.1954 144.2738,51.5924 143.6688,52.9574 C144.0848,53.1064 144.5778,53.1914 145.1508,53.2124 C145.8208,51.7524 146.4028,50.2384 146.8978,48.6734 C149.9548,39.0074 148.4818,35.8094 146.3188,36.6424 L146.3188,36.6424 Z" id="Fill-8" fill="#FFFFFF"></path>
            <path d="M95.8476,102.8401 C97.0336,103.2121 97.9616,103.8361 98.6336,104.7141 C99.3056,105.5911 99.6416,106.6721 99.6416,107.9561 C99.6416,109.7741 98.9346,111.1741 97.5226,112.1551 C96.1096,113.1381 94.0496,113.6331 91.3426,113.6421 L80.6146,113.6741 L80.6146,92.9281 L90.7496,92.898001 C93.2786,92.8901 95.2196,93.3671 96.5736,94.3321 C97.9266,95.2961 98.6036,96.6081 98.6036,98.2681 C98.6036,100.3421 97.6856,101.8661 95.8476,102.8401 L95.8476,102.8401 Z M90.1576,96.5151 L85.3856,96.5291 L85.3856,101.4191 L90.1576,101.4051 C92.5676,101.3981 93.7726,100.5741 93.7726,98.9341 C93.7726,97.3141 92.5676,96.5071 90.1576,96.5151 L90.1576,96.5151 Z M90.9876,110.0271 C93.5356,110.0191 94.8106,109.1661 94.8106,107.4671 C94.8106,105.7471 93.5356,104.8921 90.9876,104.9001 L85.3856,104.9161 L85.3856,110.0441 L90.9876,110.0271 Z M126.8956,113.5341 L121.7386,113.5501 L117.7376,107.7831 L117.4996,107.7831 L113.3216,107.7961 L113.3216,113.5751 L108.5206,113.5901 L108.5206,92.8431 L117.4996,92.8170287 C120.2666,92.8091 122.4596,93.4741 124.0796,94.8121 C125.7006,96.1511 126.5096,97.9861 126.5096,100.3181 C126.5096,101.8591 126.1396,103.1891 125.3996,104.3071 C124.6586,105.4261 123.6056,106.2831 122.2426,106.8801 L126.8956,113.5341 Z M121.6496,100.3321 C121.6496,99.1661 121.2746,98.2741 120.5236,97.6531 C119.7726,97.0331 118.6756,96.7261 117.2336,96.7300614 L113.3216,96.7411 L113.3216,103.9731 L117.2336,103.9611 C118.6756,103.9561 119.7726,103.6381 120.5236,103.0031 C121.2746,102.3681 121.6496,101.4781 121.6496,100.3321 L121.6496,100.3321 Z M145.5846,113.834174 C142.3046,113.8441 139.5926,112.8341 137.4496,110.8061 C135.3046,108.7771 134.2336,106.2221 134.2336,103.1401 C134.2336,100.0571 135.3046,97.4951 137.4496,95.4531 C139.5926,93.4121 142.3046,92.3861 145.5846,92.37604 C148.8446,92.3671 151.5516,93.3711 153.7046,95.3901 C155.8596,97.4081 156.9356,99.9691 156.9356,103.0711 C156.9356,106.1731 155.8596,108.7401 153.7046,110.7731 C151.5516,112.8041 148.8446,113.8241 145.5846,113.834174 L145.5846,113.834174 Z M140.9316,107.9051 C142.1566,109.1371 143.7066,109.7501 145.5846,109.744144 C147.4616,109.7381 149.0126,109.1161 150.2376,107.8781 C151.4626,106.6391 152.0756,105.0421 152.0756,103.0861 C152.0756,101.1301 151.4626,99.5361 150.2376,98.3051 C149.0126,97.0731 147.4616,96.4611 145.5846,96.4660696 C143.7066,96.4721 142.1566,97.0951 140.9316,98.3331 C139.7056,99.5711 139.0936,101.1681 139.0936,103.1241 C139.0936,105.0811 139.7056,106.6751 140.9316,107.9051 L140.9316,107.9051 Z M172.6016,113.753184 C170.9616,113.7581 169.3756,113.5401 167.8446,113.1011 C166.3136,112.6601 165.0826,112.0861 164.1546,111.3781 L165.7846,107.7571 C166.6736,108.4061 167.7316,108.9271 168.9556,109.3191 C170.1816,109.7091 171.4066,109.9031 172.6316,109.9001 C173.9936,109.8961 175.0016,109.6911 175.6546,109.2831 C176.3066,108.8761 176.6326,108.3371 176.6326,107.6651 C176.6326,107.1521 176.4096,106.7171 175.9656,106.3621 C175.5216,106.0091 174.9436,105.7341 174.2326,105.5381 C173.5206,105.3431 172.7406,105.1531 171.8906,104.9681 C171.0406,104.7821 170.1866,104.5531 169.3266,104.2781 C168.4676,104.0041 167.6816,103.6611 166.9706,103.2481 C166.2586,102.8361 165.6816,102.2491 165.2366,101.4901 C164.7916,100.7311 164.5706,99.8271 164.5706,98.7801 C164.5706,96.9031 165.3216,95.3561 166.8226,94.1351 C168.3246,92.9151 170.4876,92.3011 173.3136,92.2930012 C176.1776,92.2841 178.5786,92.8901 180.5146,94.1091 L179.0336,97.7591 C177.1176,96.6781 175.2006,96.1411 173.2846,96.1461 C171.9396,96.1511 170.9476,96.3701 170.3046,96.8071 C169.6626,97.2431 169.3416,97.8181 169.3416,98.5281 C169.3416,99.2211 169.7566,99.7631 170.5866,100.1551 C171.4156,100.5481 172.4186,100.8651 173.5946,101.1101 C174.7706,101.3531 175.9506,101.6511 177.1366,102.0031 C178.3226,102.3551 179.3286,102.9741 180.1596,103.8611 C180.9896,104.7481 181.4046,105.8921 181.4046,107.2951 C181.4046,109.1331 180.6436,110.6661 179.1216,111.8961 C177.6006,113.1251 175.4266,113.7441 172.6016,113.753184 L172.6016,113.753184 Z" id="Fill-10" fill="#FA03A1"></path>
            <path d="M81.2704,93.5901 L81.2704,113.0081 L81.9204,113.0061 L81.9204,93.9681 L92.0564,93.9381 C93.1524,93.9341 94.1374,94.0231 95.0134,94.2011 C93.6674,93.6761 92.1114,93.5571 90.8424,93.5610036 L81.2704,93.5901 Z M94.3574,98.2901 C94.4044,98.5151 94.4304,98.7601 94.4304,99.0261 C94.4304,101.4361 92.3374,102.0621 90.2494,102.0691 L86.6924,102.0791 L86.6924,102.4601 L91.4634,102.4451 C93.8744,102.4391 95.0804,101.6141 95.0804,99.9751 C95.0804,99.2511 94.8374,98.6891 94.3574,98.2901 L94.3574,98.2901 Z M91.0794,110.6911 L86.6924,110.7041 L86.6924,111.0841 L92.2934,111.0681 C94.8424,111.0601 96.1174,110.2061 96.1174,108.5071 C96.1174,107.7541 95.8714,107.1651 95.3814,106.7441 C95.4374,106.9921 95.4674,107.2631 95.4674,107.5581 C95.4674,110.0651 93.2344,110.6851 91.0794,110.6911 L91.0794,110.6911 Z M121.6544,94.1281 C120.3344,93.6301 118.9104,93.4771 117.5914,93.481024 L109.1774,93.5061 L109.1774,112.9241 L109.8274,112.9221 L109.8274,93.8851 L118.8064,93.8571 C119.8344,93.8541 120.7844,93.9441 121.6544,94.1281 L121.6544,94.1281 Z M122.3074,100.4231 C122.3074,101.6941 121.8944,102.7661 120.9844,103.5351 C120.0054,104.3621 118.6594,104.6201 117.3264,104.6251 L114.6274,104.6331 L114.6274,105.0141 L118.5404,105.0021 C119.9824,104.9971 121.0794,104.6781 121.8304,104.0431 C122.5814,103.4081 122.9564,102.5191 122.9564,101.3731 C122.9564,100.3511 122.6664,99.5381 122.0894,98.9351 C122.2414,99.4101 122.3074,99.9141 122.3074,100.4231 L122.3074,100.4231 Z M149.8434,93.7181 C148.5134,93.2351 147.1084,93.0361 145.6764,93.040041 C142.6224,93.0491 140.0214,93.9771 137.9334,95.9651 C135.9334,97.8691 134.8904,100.2681 134.8904,103.2311 C134.8904,105.2491 135.3714,107.1191 136.5054,108.7741 C135.8614,107.4011 135.5404,105.8691 135.5404,104.1801 C135.5404,101.0981 136.6124,98.5361 138.7544,96.4941 C140.8994,94.4521 143.6114,93.4271 146.8904,93.4171 C147.9314,93.4141 148.9154,93.5151 149.8434,93.7181 L149.8434,93.7181 Z M152.1274,100.0221 C152.5514,101.0161 152.7324,102.0831 152.7324,103.1771 C152.7324,105.2441 152.0914,107.0041 150.7344,108.3781 C149.3954,109.7311 147.6954,110.4021 145.6764,110.4081 C145.1794,110.4091 144.6894,110.3701 144.2104,110.2841 C145.0144,110.6201 145.9084,110.7871 146.8904,110.78414 C148.7684,110.7791 150.3194,110.1571 151.5434,108.9181 C152.7694,107.6801 153.3814,106.0821 153.3814,104.1261 C153.3814,102.5111 152.9624,101.1441 152.1274,100.0221 L152.1274,100.0221 Z M178.2494,93.7051 C176.6674,93.1411 174.9924,92.9521 173.4054,92.9571 C171.2164,92.9641 168.9124,93.3451 167.2754,94.6751 C165.9854,95.7221 165.2274,97.0781 165.2274,98.8711 C165.2274,99.6551 165.3634,100.4841 165.7904,101.2141 C165.9144,101.4251 166.0504,101.6221 166.2014,101.8041 C165.9844,101.2141 165.8754,100.5521 165.8754,99.8211 C165.8754,97.9441 166.6264,96.3961 168.1284,95.1761 C169.6304,93.9561 171.7934,93.3421 174.6194,93.3341 C175.9254,93.3301 177.1354,93.4541 178.2494,93.7051 L178.2494,93.7051 Z M177.2614,107.3961 C177.2804,107.5131 177.2904,107.6341 177.2904,107.7561 C177.2904,108.7101 176.7964,109.3971 176.0524,109.8611 C175.1394,110.4321 173.8404,110.5601 172.7234,110.5641 C171.7924,110.5671 170.8604,110.4601 169.9314,110.2471 C170.0404,110.2851 170.1514,110.3231 170.2634,110.3591 C171.4874,110.7511 172.7124,110.9441 173.9374,110.941134 C175.3004,110.9371 176.3094,110.7311 176.9604,110.3241 C177.6134,109.9171 177.9394,109.3771 177.9394,108.7061 C177.9394,108.1921 177.7164,107.7581 177.2724,107.4031 L177.2614,107.3961 Z M166.9224,109.1731 C166.6464,109.0331 166.3754,108.8831 166.1104,108.7191 L164.9904,111.2071 C165.2504,111.3721 165.5234,111.5231 165.8034,111.6591 L166.9224,109.1731 Z M177.2664,102.7121 C177.1894,102.6861 177.1114,102.6611 177.0334,102.6381 C175.8784,102.2951 174.7154,102.0011 173.5494,101.7601 C173.3554,101.7191 173.1604,101.6761 172.9634,101.6291 C173.5464,101.8301 174.1924,102.0031 174.9014,102.1511 C175.6874,102.3131 176.4754,102.5011 177.2664,102.7121 L177.2664,102.7121 Z" id="Fill-12" fill="#FFFFFF"></path>
            <path d="M100.0605,104.0559 C100.5205,104.4049 100.9375,104.8139 101.3015,105.2889 C102.2245,106.4949 102.6155,107.9239 102.6155,109.4339 C102.6155,111.6829 101.7135,113.5659 99.8555,114.8589 C97.8575,116.2479 95.2035,116.6039 92.8295,116.6109 L80.6145,116.6479 L80.6145,115.1599 L91.3425,115.1279 C93.7165,115.1209 96.3705,114.7649 98.3685,113.3759 C100.2265,112.0839 101.1275,110.2009 101.1275,107.9519 C101.1275,106.4419 100.7385,105.0129 99.8145,103.8079 C99.4505,103.3309 99.0345,102.9219 98.5745,102.5739 C99.5735,101.4259 100.0905,99.9699 100.0905,98.2629 C100.0905,96.8879 99.7155,95.6699 98.9865,94.6469 C100.6885,95.8849 101.5775,97.6279 101.5775,99.7449 C101.5775,101.4519 101.0605,102.9089 100.0605,104.0559 L100.0605,104.0559 Z M117.9885,110.7549 L116.2945,110.7609 L116.2945,116.5399 L108.5205,116.5639 L108.5205,115.0769 L114.8085,115.0579 L114.8085,109.2789 L116.9585,109.2719 L117.9885,110.7549 Z M126.3065,94.9799 C126.3765,95.0349 126.4465,95.0899 126.5155,95.1469 C128.5675,96.8419 129.4835,99.1509 129.4835,101.7949 C129.4835,103.5149 129.0815,105.1619 128.1235,106.6079 C127.5225,107.5169 126.7665,108.2619 125.8935,108.8599 L131.2325,116.4949 L122.4465,116.5219 L121.4165,115.0369 L129.7465,115.0129 L124.4065,107.3759 C125.2805,106.7799 126.0365,106.0349 126.6375,105.1249 C127.5945,103.6799 127.9975,102.0329 127.9975,100.3129 C127.9975,98.2989 127.4645,96.4819 126.3065,94.9799 L126.3065,94.9799 Z M147.0715,116.802986 C143.5915,116.8139 140.4505,115.7709 137.9125,113.3699 C137.5715,113.0469 137.2545,112.7129 136.9615,112.3679 C139.4005,114.4279 142.3465,115.3309 145.5845,115.3209 C149.0535,115.3109 152.1835,114.2479 154.7235,111.8519 C157.2315,109.4869 158.4225,106.4989 158.4225,103.0669 C158.4225,100.1209 157.5445,97.5099 155.7125,95.3429 C155.8805,95.4849 156.0465,95.6329 156.2095,95.7859 C158.7175,98.1369 159.9095,101.1169 159.9095,104.5489 C159.9095,107.9819 158.7175,110.9689 156.2095,113.3339 C153.6705,115.7309 150.5395,116.7929 147.0715,116.802986 L147.0715,116.802986 Z M174.0885,116.722013 C172.3355,116.7279 170.6005,116.4949 168.9165,116.0119 C167.4455,115.5889 165.9615,114.9769 164.7375,114.0429 L163.8015,113.3289 L163.9345,113.0339 C165.0075,113.7079 166.2235,114.1829 167.4295,114.5299 C169.1135,115.0129 170.8485,115.2449 172.6015,115.2399 C175.2135,115.2319 177.9685,114.7379 180.0545,113.0509 C181.8755,111.5789 182.8905,109.6399 182.8905,107.2899 C182.8905,105.8589 182.5295,104.5229 181.7045,103.3959 C182.0695,103.6729 182.4125,103.9829 182.7335,104.3259 C183.8835,105.5549 184.3765,107.0999 184.3765,108.7729 C184.3765,111.1219 183.3635,113.0609 181.5405,114.5339 C179.4555,116.2189 176.7015,116.7139 174.0885,116.722013 L174.0885,116.722013 Z M174.4095,108.2159 C173.9595,108.1049 173.5085,108.0009 173.0565,107.9029 C172.1465,107.7039 171.2465,107.4599 170.3585,107.1779 C169.4375,106.8839 168.5445,106.5029 167.7075,106.0169 C166.9345,105.5689 166.2925,104.9699 165.7815,104.2529 C165.9225,104.3529 166.0695,104.4469 166.2215,104.5349 C167.0575,105.0209 167.9505,105.4019 168.8715,105.6959 C169.7585,105.9789 170.6595,106.2219 171.5695,106.4199 C172.3285,106.5849 173.0845,106.7669 173.8335,106.9719 C174.2475,107.0849 174.6995,107.2579 175.0375,107.5269 C175.0835,107.5639 175.1455,107.6049 175.1455,107.6699 C175.1455,107.8479 175.0135,107.9329 174.8705,108.0229 C174.7425,108.1019 174.5845,108.1649 174.4095,108.2159 L174.4095,108.2159 Z M182.1755,93.9679 C182.3845,94.0819 182.5925,94.2029 182.7965,94.3319 L183.8465,94.9939 L181.2595,101.3679 L179.7865,100.5369 C178.2395,99.6639 176.5615,99.1099 174.7705,99.1159 C174.2575,99.1169 173.3925,99.1599 172.8435,99.4009 C172.2875,99.2449 171.7385,99.0529 171.2255,98.8109 C171.1385,98.7699 170.8755,98.6329 170.8285,98.5409 C170.8275,98.5349 170.8285,98.5309 170.8285,98.5249 C170.8285,98.2839 170.9435,98.1679 171.1385,98.0359 C171.6455,97.6909 172.6965,97.6349 173.2845,97.6329 C175.0745,97.6269 176.7525,98.1819 178.2995,99.0549 L179.7735,99.8849 L182.1755,93.9679 Z M88.3595,99.4939 L88.3595,99.9239 L86.8725,99.9279 L86.8725,98.0119 L90.1575,98.0008859 C90.6065,97.9999 91.8925,98.0509 92.1885,98.4919 C92.2695,98.6119 92.2865,98.7979 92.2865,98.9389 C92.2865,99.0879 92.2685,99.2849 92.1815,99.4129 C92.1615,99.4429 92.1365,99.4719 92.1085,99.4969 C91.9195,99.4869 91.7555,99.4839 91.6445,99.4839 L88.3595,99.4939 Z M88.3595,107.8809 L88.3595,108.5479 L86.8725,108.5519 L86.8725,106.3989 L90.9875,106.385887 C91.5035,106.3849 92.8645,106.4409 93.2045,106.9429 C93.3025,107.0879 93.3235,107.2999 93.3235,107.4709 C93.3235,107.6079 93.3095,107.7729 93.2485,107.9049 C92.9405,107.8739 92.6555,107.8689 92.4735,107.8689 L88.3595,107.8809 Z M116.2945,99.7059 L116.2945,102.4769 L114.8085,102.4819 L114.8085,98.2239 L117.2335,98.2158691 C117.9745,98.2139 118.9775,98.3079 119.5745,98.8009 C119.9115,99.0779 120.0675,99.4459 120.1285,99.8479 C119.6575,99.7279 119.1465,99.6979 118.7205,99.6999 L116.2945,99.7059 Z M149.8255,100.1599 C149.0165,99.6509 148.0975,99.4319 147.0715,99.4359 C145.6695,99.4399 144.4665,99.8549 143.4735,100.8589 C142.4505,101.8939 142.0675,103.1719 142.0675,104.6029 C142.0675,105.6809 142.2855,106.6709 142.8305,107.5349 C142.5345,107.3479 142.2535,107.1229 141.9865,106.8559 C140.9635,105.8269 140.5805,104.5509 140.5805,103.1199 C140.5805,101.6899 140.9635,100.4109 141.9865,99.3769 C142.9805,98.3719 144.1825,97.9569 145.5845,97.9528835 C146.9865,97.9499 148.1895,98.3569 149.1825,99.3549 C149.4345,99.6089 149.6475,99.8769 149.8255,100.1599 L149.8255,100.1599 Z" id="Fill-14" fill="#03F0E8"></path>
        </g>
    </g>
</svg>